<?xml version="1.0" encoding="utf-8"?>
<!-- Generator: Adobe Illustrator 26.0.2, SVG Export Plug-In . SVG Version: 6.00 Build 0)  -->
<svg version="1.1" id="Layer_1" xmlns="http://www.w3.org/2000/svg" xmlns:xlink="http://www.w3.org/1999/xlink" x="0px" y="0px"
	 viewBox="0 0 3280 1096" style="enable-background:new 0 0 3280 1096;" xml:space="preserve">
<g>
	<path d="M2153.21,643.49c2.24,0,4.13,0,6.25,0c0.78-2.2,0.99-4.29-0.27-6.6c-1.06-1.95-2.01-4.12-2.29-6.29
		c-0.39-2.91-0.1-5.92-0.1-8.22c4.97-5.78,10.07-10.86,14.12-16.68c3.98-5.73,7.9-11.57,10.28-18.35
		c1.91-5.43,3.78-10.84,5.55-16.32c1.11-3.43-0.86-7.52,2.41-10.3c0.54-6.52,1.29-13.02,1.56-19.55c0.27-6.46,0.22-12.94-0.02-19.4
		c-0.1-2.76-1.17-5.47-1.49-8.23c-0.29-2.55,0.42-5.28-1.67-7.41c1.21-4.57-1.73-8.63-1.69-13.08c0.01-0.85-0.91-1.7-1.48-2.68
		c5.88-0.73,11.78-1.39,17.65-2.21c2.5-0.35,4.94-1.44,7.42-1.48c2.68-0.04,5.01-1.24,7.44-1.56c9.14-1.19,18.3-2.93,27.46-1.4
		c5.38-4.17,7.49-9.99,9.43-15.65c3.38-9.85,5.42-19.99,6.94-30.39c1.13-7.69,0.63-15.25,1.42-23.36c1.05-0.88,2.49-2.07,4.32-3.59
		c6-0.33,12.2-3.37,18.92-3.42c2.49-3.64,6.85-0.49,10.18-2.97c2.54-1.89,6.94-1.17,10.44-1.93c5.91-1.27,11.78-2.75,17.65-4.23
		c3.44-0.87,6.98-0.99,10.46-2.04c5.57-1.68,11.76-1.53,17.12-3.61c5.48-2.13,11.68-1.17,16.68-4.62c6.89,0.93,13.07-2.48,19.62-3.6
		c5.81-0.99,11.77-3.09,17.56-4.02c6.32-1.02,12.33-3.39,18.76-3.82c4.25-0.28,8.18-2.54,12.82-0.92c3.77,1.31,8.08,1.66,11.77,2.9
		c7.41,2.49,15.23,3.24,22.51,6.13c2.55,1.01,5.46,1.12,8.19,1.7c2.97,0.63,6.54,0.52,8.72,2.2c2.55,1.97,6.18-0.69,7.87,2.64
		c14.16,1.51,27.27,7.38,41.22,9.95c5.81,1.07,11.7,2.78,17.46,4.55c5.75,1.77,11.62,3.56,17.43,4.63
		c9.99,1.85,19.64,4.93,29.58,6.92c9.05,1.81,17.79,5.13,26.72,7.62c3.17,0.89,6.54,1.09,9.71,1.97c3.34,0.93,6.38,1.85,8.06,5.91
		c2.58,6.21,6.01,11.99,7.8,18.64c0.68,2.52,1.47,4.92,1.33,7.48c-0.54,9.95,0.29,19.65,5.3,28.14c-2.22,6.14-5.8,10.44-11.23,14.19
		c3.58,2,6.33,3.54,9.5,5.31c-2.57,6.45-1.68,13.02-1.96,19.51c-0.28,6.58,1.21,12.71,3.74,18.33c1.67-0.48,3.31-0.94,5.61-1.6
		c3.95-3.46,8.24-7.57,9.21-13.95c0.19-1.24,0.85-2.44,0.86-3.67c0.07-9.43-0.11-18.87,0.15-28.3c0.06-2.27-2.06-4.1-0.34-6.89
		c1.18-1.91,0.23-5.15,0.23-7.97c2.96,1.43,1.27,3.66,1.55,5.39c0.29,1.77,0.06,3.62,0.06,5.42c0.7,0.03,0.94,0.11,1.07,0.03
		c0.22-0.13,0.52-0.37,0.52-0.57c0.02-17.79,0.02-35.57,0.02-53.44c2.84-1.38,5.25-0.55,7.99,0.78c2.4,1.17,5.35,1.22,8.05,1.77
		c0,52.48,0,104.43,0,156.21c-12.14,7.05-24.1,14.01-36.89,21.43c-2.44,0.28-5.92,0.67-9.79,1.11c0.69-4.24,1.04-9.07,2.34-13.62
		c1.35-4.76,1.9-9.97,0.23-13.97c-1.88-4.53,1.3-10.27-4.29-13.95c-5.06,5.69-7.88,12.85-11.26,19.63
		c-3.45,6.91-6.85,13.88-9.66,21.06c-2.82,7.21-4.88,14.71-7.48,22.76c-4.11,2.4-8.95,5.1-13.67,8.01
		c-9.85,6.08-19.97,11.75-30.03,17.43c-8.72,4.92-17.31,10.13-26.07,15.01c-11.86,6.61-23.82,13.06-35.24,20.52
		c-3.86,2.52-8.29,4.6-12.45,6.9c-5.66,3.13-11.26,6.36-17.22,9.73c0-5.27,0-10.32,0-15.9c1.47-0.95,3.4-2.19,4.76-3.07
		c4.65-0.76,8.69-1.69,12.77-2.03c4.01-0.33,8.07-0.07,11.83-0.07c2.1-2,4.05-3.85,5.94-5.64c-1.33-10.73-8.05-17.84-18.59-29.95
		c-15.4,0-31.14-1.26-46.56,0.38c-13.26,1.41-26.47,0.3-39.91,1.51c0,17.05,0,33.96,0,51.59c-3.24-0.7-6.39,1.33-9.11-1.66
		c-0.37-0.4-1.56-0.12-2.36-0.05c-6.34,0.55-12.36-2.65-18.74-1.63c-3.86-2.28-8.52-0.49-12.16-1.9c-3.98-1.54-7.93-0.3-11.52-1.49
		c-4.38-1.46-9.22-0.18-12.99-1.78c-4.32-1.83-8.65,0.09-12.31-1.5c-3.92-1.7-8.08-0.22-11.45-1.65c-3.95-1.69-7.73-0.93-11.56-1.41
		c-2.77-0.35-5.47-1.2-8.23-1.54c-2.54-0.31-5.25,0.54-7.47-1.61c-0.42-0.4-1.56-0.04-2.37-0.06c-3.88-0.11-7.65,0.01-11.53-1.42
		c-3.25-1.2-7.04,0.15-10.68-1.59c-2.41-1.16-5.86,0.05-8.78-0.3c-2.74-0.33-5.4-1.31-8.99-2.23c0-1.39,0-3.44,0-5.49
		c0-53.91-0.06-107.82,0.08-161.72c0.02-6.35-0.98-12.24-3.92-17.98c-4.43,0-8.94,0-13.29,0c-1.1,1.1-2.05,2.05-3.05,3.05
		c-3.18,0-6.4,0-10.45,0c-1.04-2.97-2.17-6.19-3.32-9.48c-6.34,0-12.22,0-17.77,0c-3.08,3.08-6.1,6.1-9.36,9.37
		c2.4,3.76,4.83,8.54,8.18,12.54c2.8,3.36,6.37,6.33,10.15,8.55c4.9,2.89,7.15,7.63,10.26,12.35c0,47.76,0,95.93,0,144.1
		c-4.56,1.49-8.71-0.09-12.99-0.99s-8.75-1.82-13.05-1.51c-4.37,0.32-8.11-1.67-12.28-1.89c-4.33-0.22-8.63-1.13-13.24-1.77
		C2164.29,670.31,2158.77,656.96,2153.21,643.49z M2657.21,554.79c-3.31,0-5.84,0-7.96,0c-1.92,5.77-3.73,11.19-5.66,16.99
		c2.51,0.86,4.99,1.71,7.42,2.54C2653.19,567.48,2655.12,561.37,2657.21,554.79z"/>
	<path d="M542.76,717.71c-3.2,2.72-6.35,5.41-9.48,8.08c-3.33-4.56-1.36-11.66-7.03-15.01c5.57-4.08,11.31-6.7,17.97-5.74
		c5.96-2.53,9.47-7.7,13.87-11.81c3.03-2.83,5.98-5.12,10.35-6.36c5.39-1.53,11.14-4.17,12.64-11.59c-0.22-0.29-0.82-1.1-1.53-2.06
		c0-6.25-1.25-13.04,0.31-19.1c1.99-7.73,0.37-15.27,1.58-22.87c-8.64-4.94-14.37-12.5-20.23-19.89
		c-5.58-7.04-7.95-16.07-13.98-24.01c-1.41,2.48-2.5,4.05-3.24,5.76c-3.7,8.54-9.86,15.41-15.35,23.4
		c-2.25-7.66-8.34-11.57-13.8-17.67c0,3.13,0,5.19,0,7.26c0,11.32-0.13,22.64,0.05,33.96c0.11,7.13-2.38,13.94-1.79,21.17
		c0.59,7.23,0.13,14.54,0.13,21.82c0,7.01,0,14.02,0,21.02c0,7.28,0,14.55,0,21.83c0,7.28,1.09,14.76-0.23,21.79
		c-2.56,13.56-0.38,27.1-1.67,40.81c-54.45,12.15-109.2,24.38-164.72,36.77c0-3.08,0-5.43,0-7.78c0-45.55-0.01-91.1,0.01-136.65
		c0-2.83-0.67-5.82,1.79-8.22c-2.46-2.41-1.79-5.4-1.79-8.23c-0.02-38.54-0.01-77.08-0.01-115.62c0-18.86,0-37.72,0-56.56
		c12.61-3.58,25.45-6,37.93-10.03c6.86-2.22,14.19-3.49,21.28-5.28c9.5-2.41,19.13-4.24,28.44-7.47c4.98-1.73,10.23-2.68,15.39-3.85
		c5.73-1.3,11.5-3.21,17.25-0.02c6.12-1.06,11.86,1.81,17.93,1.72c3-0.04,6.02,0.97,9.03,1.52c3.01,0.55,5.97-0.53,9.19,1.34
		c2.41,1.4,6.28,0.28,8.72,0.28c2.01,1.03,3.36,1.73,4.86,2.49c-0.23,0.68-0.35,1.47-0.73,2.09c-1.62,2.65-2.74,5.32-2.78,8.6
		c-0.04,3.29-1.08,6.55-1.48,9.85c-0.37,3.05,0.74,6.31-1.59,9.08c-0.4,0.47-0.04,1.57-0.06,2.38c-0.08,4.41,0.57,8.88-1.54,13.11
		c-0.51,1.03-0.08,2.53-0.08,4.31c9.52-2.77,18.68-4.26,29.24-2.97c4.53,5.7,9.7,12.21,15.06,18.95
		c9.48-5.52,18.96-11.04,28.5-16.59c0-9.29-0.28-18.45,0.13-27.57c0.18-4.02-3.06-6.38-3.46-9.97c-0.12-1.07-1.19-2.04-2.58-4.28
		c4.65,1.04,8.31-1.5,11.6,1.78c0.41,0.41,1.56,0.02,2.36,0.09c6.25,0.52,12.66,0.38,18.68,1.85c4.17,1.02,8.39,0.5,12.27,1.58
		c4.14,1.16,8.32,0.68,12.29,1.55c7.86,1.73,15.89,1.89,23.72,3.31c4.4,0.8,8.92,0.54,13.05,1.64c4.43,1.18,8.97,0.42,13.07,1.61
		c4.17,1.2,8.61,0.22,12.23,1.66c4.25,1.69,8.52,0.19,12.31,1.53c4.15,1.47,8.7,0.18,12.2,1.74c4.04,1.8,7.88,0.35,11.57,1.41
		c3.27,0.93,6.43,1.77,9.87,1.64c0.7-0.03,1.46,1.45,2.47,2.52c0,13.6,0.37,27.61-0.16,41.58c-0.27,7.03,1.98,13.05,4.53,19.22
		c1.33,3.22,2.88,6.43,3.63,9.8c1.16,5.28-1.42,10.09-3.3,14.75c-1.21,3-3.92,5.4-6.32,8.54c0,46.02,0,92.57,0,139.47
		c-4.81,1.17-9.41,2.41-14.08,3.39c-5.73,1.2-11.81,1.4-17.17,3.48c-5.47,2.13-11.69,1.14-16.67,4.63
		c-6.86-0.76-13.17,2.28-19.6,3.62c-7.81,1.62-15.78,3.08-23.49,5.53c-6.01,1.91-12.42,2.58-18.65,3.8
		c-2.74,0.54-5.55,0.85-8.21,1.66c-8.95,2.71-18.21,4.11-27.26,6.37c-5.67,1.41-11.5,2.18-17.23,3.35
		c-0.68,0.14-1.21,0.98-2.31,1.92c-0.12-1.84-0.22-3.33-0.32-4.82c-0.54-8.13-1.29-16.26-1.56-24.4c-0.27-8.08,1.13-16.4-0.37-24.2
		c-1.77-9.21-0.51-18.39-1.69-28.72c-1.76,2.65-3.04,4.35-4.07,6.19c-1.83,3.27-3.07,6.98-5.35,9.88
		C558.4,715.02,552.09,718.84,542.76,717.71z"/>
	<path d="M1460.91,837.25c-2.96,5.18-6.33,10.78-9.4,16.53c-6.73,12.58-14.72,24.3-23.42,35.58c-2.32,3-4.58,6.15-6.25,9.53
		c-3.65,7.39-9.73,12.21-16.48,16.31c-6.94,4.22-11.69,10.75-17.62,16.02c-3.94,3.5-6.36,8.09-8.96,12.49
		c-1.36,2.31-1.58,5.28-2.51,8.67c-4.08-0.78-8.66-1.65-14.14-2.69c-4.68,0.86-10.44,1.92-16.75,3.08
		c-2.53-2.91-5.14-5.92-8.15-9.38c-4.28,3.4-7.31,7.12-10.9,10.34c-6.74,0.79-13.56,1.58-20.28,3.41c-3.38,0.92-7.07,0.3-10.67,1.59
		c-3.54,1.27-7.11-0.43-10.43-3.71c0-1.48,0-3.5,0-6.28c-4.84,3.32-8.91,6.12-12.64,8.69c-3.17-3.17-5.99-5.99-9.28-9.28
		c-2.5,2.18-4.44,3.86-6.78,5.9c-11.86,0-24.22-0.05-36.59,0.03c-4.22,0.02-8.05-1.67-11.51-3.44c-5.6-2.86-11.01-5.95-17.24-7.22
		c-0.73-0.15-1.44-0.7-2.13-0.66c-7.41,0.4-13.74-3.05-20.34-5.58c-3.55-1.36-7.19-2.2-11.04-2.75c-7.74-1.12-15.61-1.4-23.16-4.46
		c-7.38-2.99-14.16-6.56-20.24-11.65c-14.07-11.77-24.13-24.63-34.77-42.03c-5.26-8.6-9.56-17.65-14.04-26.57
		c-4-7.96-6.7-16.65-8.65-25.54c-1.08-4.96-1.41-9.79-1.41-14.73c-0.02-41.23-0.01-82.46-0.01-123.69c0-2.65,0-5.29,0-7.61
		c8.9-3.59,18.32-3.33,26.67-7.16c6.89,0.91,13.04-2.55,19.62-3.58c5.82-0.92,12.11-1.24,17.49-4.41
		c6.84,0.64,13.04-2.52,19.58-3.64c7.66-1.31,15.37-3.04,22.92-5.04c5.84-1.55,11.76-2.83,17.62-4.16
		c6.9-1.57,13.81-3.43,20.72-4.53c6.57-1.05,12.88-3.13,19.51-3.98c7.95-1.02,15.7-3.61,23.55-5.47c5.9-1.39,11.81-2.77,17.74-4.01
		c6.68-1.4,13.36-2.86,20.01-4.25c6.45-1.35,12.91-2.96,19.45-4.08c7.7-1.31,15.21-3.82,23.02-4.8c2.64-3.35,6.87-0.41,10.23-2.81
		c2.61-1.86,7.08-0.85,10.42-1.99c5.77-1.96,11.79-2.67,17.62-4.24c6.12-1.65,12.44-2.51,18.67-3.75c2.48-0.49,4.96-1,7.41-1.62
		c9.82-2.47,19.75-4.42,29.65-6.51c6.39-1.35,12.68-3.21,19.03-4.77c0.68-0.17,1.47,0.17,2.88,0.36c-1.34,2.78-2.47,5.2-3.66,7.59
		c-4.66,9.39-8.78,19.03-11.85,29.04c-3.15,10.25-7,20.49-5.86,31.49c0.68,6.6,1.35,13.37,3.41,19.6
		c1.91,5.77,2.29,11.82,4.46,17.53c1.87,4.9,2.5,10.27,3.73,15.65c10.58,0,21.02,0,31.72,0
		C1460.91,755.54,1460.91,796.15,1460.91,837.25z M1215.3,664.29c0,26.12-0.29,51.19,0.08,76.24c0.37,25.1-1.79,50.26,1.48,74.54
		c2.87,5.57,4.81,11.11,11.92,12.99c1.73,0,4.38,0,7.24,0c3.1,3.81,6.2,7.63,8.58,10.55c8.11,1.79,14.26-0.08,20.14-4.12
		c3.23-2.22,7.21-3.35,10.85-4.96c1.51-0.67,3.02-1.31,4.81-2.07c-3.25-3.07-5.39-5.91-5.23-10.02c3.21-3.1,6.5-6.27,9.86-9.51
		c0-34.81,0-69.5,0-104.26c1.89-1.15,3.63-2.21,4.99-3.03c4.15-0.76,7.9-1.75,11.7-2.06c4.28-0.35,8.62-0.08,11.69-0.08
		c2.65-2.68,4.68-4.73,7.08-7.15c-2.38-11.52-11.15-19.65-18.38-28.44c-6.45,0-12.38,0.23-18.3-0.04
		C1261.09,661.83,1238.55,665.91,1215.3,664.29z"/>
	<path d="M2894.25,492.44c6.22,1.46,12.9,2.96,19.56,4.59c7.58,1.85,15.12,3.86,22.7,5.7c7.36,1.78,14.92,2.92,22.08,5.29
		c7.17,2.37,14.53,4.11,21.8,5.76c7.39,1.68,14.5,4.33,22,5.67c7.37,1.32,14.5,3.96,21.77,5.91c2.69,0.72,5.48,1.08,8.21,1.66
		c2.97,0.63,6.54,0.52,8.71,2.21c2.55,1.98,6.19-0.71,7.88,2.64c10.18,0.84,19.63,4.93,29.65,6.58c6.42,1.06,12.34,4.37,18.98,4.96
		c0.82,0.07,1.53,1.43,2.32,2.22c0,53.34,0,106.7,0,160.06c-3.11,16.95-1.25,34.05-1.55,51.08c-0.3,16.97-0.07,33.96-0.07,51.68
		c-1.22-0.62-2.22-1.61-3.04-1.48c-6.68,1.05-12.95-2.27-19.56-1.7c-3.16,0.27-5.64-2.42-9.05-1.73c-3.02,0.62-6.01-0.47-9.07-1.3
		c-3.64-0.99-7.82,0.38-11.4-1.83c-6.13,1.2-11.88-1.71-17.93-1.71c-3.01,0-6.03-0.95-9.03-1.53c-3.01-0.58-6.45,1.45-9.09-1.54
		c-0.24-0.27-1.03-0.03-1.56-0.07c-6.25-0.53-12.5-0.98-18.73-1.65c-2.77-0.3-5.47-1.18-8.23-1.54c-2.54-0.33-5.26,0.6-7.47-1.6
		c-0.4-0.4-1.56-0.04-2.37-0.06c-3.88-0.08-7.66,0.01-11.53-1.43c-3.25-1.21-7.33,0.81-10.61-1.76c-0.33-0.26-1.05,0-1.59-0.04
		c-3.85-0.33-7.61,0.32-11.56-1.37c-3.36-1.44-7.77,0.66-11.4-1.78c-0.74-0.5-2.11-0.12-3.19-0.06c-3.67,0.21-7.14-0.46-10.68-1.52
		c-3.14-0.94-6.85,1.02-9.86-1.67c-0.45-0.4-1.57-0.04-2.38-0.06c-3.88-0.08-7.66,0.01-11.53-1.43c-3.25-1.21-7.33,0.81-10.61-1.76
		c-0.33-0.26-1.05,0-1.59-0.04c-3.85-0.33-7.61,0.32-11.56-1.37c-3.36-1.44-7.77,0.67-11.41-1.78c-0.74-0.5-2.11-0.12-3.19-0.06
		c-3.67,0.21-7.14-0.45-10.68-1.52c-3.14-0.95-6.85,1.02-9.86-1.67c-0.45-0.4-1.57-0.04-2.38-0.06c-3.88-0.08-7.66,0.01-11.53-1.43
		c-3.25-1.21-7.33,0.81-10.61-1.76c-0.33-0.26-1.05,0-1.59-0.04c-3.85-0.33-7.61,0.32-11.56-1.37c-3.36-1.44-7.77,0.67-11.41-1.78
		c-0.74-0.5-2.11-0.12-3.18-0.06c-3.67,0.2-7.14-0.45-10.68-1.52c-3.14-0.95-6.46-0.12-9.93-1.41c-3.9-1.45-8.59-0.7-13.01-1.72
		c-6.05-1.4-12.46-1.15-18.68-1.9c-2.45-0.29-4.8-1.37-7.48-2.17c0-19.02,0.67-38.15-0.24-57.2c-0.61-12.73-1.22-25.71-5.73-37.97
		c-0.35-0.94-0.81-2.26-0.42-2.99c2.21-4.17,2.21-8.86,2.99-13.29c0.78-4.45-0.69-9.34,0.34-13.68c2.77-11.63,0.59-23.33,1.63-35.07
		c11.23-6.65,23.07-12.67,34.25-19.88c5.23-3.37,11.18-5.59,16.58-8.71c9.59-5.55,18.97-11.46,28.52-17.07
		c4.31-2.53,8.85-4.66,13.23-7.08c9.65-5.34,19.16-10.95,28.8-16.32c11.4-6.34,22.64-12.99,34.02-19.38
		c6.78-3.81,13.38-7.96,20.27-11.6C2891.89,495.27,2892.68,494.01,2894.25,492.44z"/>
	<path d="M1672.45,832.79c2.49-7.06,2.99-13.68,5.16-19.9c0.08-0.23,0.34-0.44,0.34-0.66c0.02-7.82,0.01-15.63,0.01-23.45
		c-2.85-3.78-1.5-8.17-1.51-12.27c-0.01-3.28,1.11-6.55,1.47-9.85c0.37-3.32-0.79-6.87,1.64-9.85c0.13-0.16,0.05-0.53,0.01-0.79
		c-1.24-9.05,1.79-17.81,1.75-26.82c-0.04-9.75,1.16-19.49,1.43-29.25c0.27-9.97-1.19-20.14,0.36-29.87
		c2.24-14.1,0.3-28.14,1.57-42.18c6.79-2.71,13.24,2.39,20.4,0.79c0,61.89,0,123.51,0,184.97c2.45,2.23,4.62,4.21,6.64,6.05
		c0,3.92,0,7.34,0,10.39c-0.97,1.84-1.79,3.4-2.87,5.44c0.57,0.29,1.48,0.76,3.69,1.89c2.47,0,6.74,0,11.64,0
		c1.24-2.42,4.34-3.51,6.5-6.02c2.03-2.36,1.36-5.62,3.77-7.43c-0.3-4.72,1.93-9,1.89-13.84c-0.29-33.69-0.15-67.38-0.15-101.07
		c6.97-1.32,135.13-1.8,165-0.6c0,2.05-0.1,4.14,0.02,6.21c0.5,8.4,0.35,16.94,1.87,25.15c0.87,4.69,0.35,9.49,1.54,13.88
		c1.93,7.09,1.3,14.14,1.36,21.22c0.04,4.92,0.42,9.79-1.36,14.76c-1.53,4.29,1.25,9.48-1.81,13.81c1.33,7.72-2.66,14.64-3.46,22.08
		c-0.6,5.6-3.21,10.99-5.03,16.45c-3.17,9.51-7.57,18.44-12.45,27.2c-3.47,6.23-7.47,12.05-11.55,17.84
		c-6.18,8.77-14,16.06-21.82,23.24c-7.52,6.91-15.73,13.09-24.87,17.91c-6.87,3.62-13.44,7.86-20.43,11.21
		c-9.9,4.74-20.36,8.15-30.85,11.41c-5.49,1.7-10.95,3.47-16.52,5.24c2.6,4.3,6.07,8.08,6.36,14.06c-3.65-0.56-7.18,1.65-10.62-1.31
		c-0.78-0.67-2.59-0.15-3.92-0.2c-18.64-0.69-37.27-1.37-56.64-2.09c-4.3-2.84-8.73-6.5-11.97-11.87c-2.29-3.81-6.1-6.83-9.62-9.72
		c-1.62-1.33-4.17-1.99-6.33-2.08c-3.65-0.15-7.68-0.44-10.9,0.89c-3.5,1.44-7.59-1.33-10.47,2.06c-8.09,0.78-16.17,1.56-24.03,2.32
		c-1.85-1.99-3.3-3.57-4.77-5.15c-0.88-0.08-1.65-0.25-2.41-0.21c-4.48,0.26-8.41-1.22-12.53-2.96
		c-12.53-5.28-23.52-12.83-34.07-21.23c-6.02-4.79-12.71-8.78-18.46-13.85c-8.69-7.67-16.97-15.94-22.66-26.15
		c-2.51-4.49-3.39-9.9-5-14.89c-1.08-3.33-1.79-6.83-3.31-9.94c-3.62-7.42-6.26-15.21-9.05-22.94c-0.69-1.9-0.57-4.14-0.57-6.23
		c-0.03-73.58-0.02-147.16-0.02-221.32c2.98,0.11,6.02-1.47,8.8,1.23c0.29,0.28,1.01,0.12,1.53,0.16c6.25,0.54,12.5,0.99,18.73,1.66
		c2.77,0.3,5.47,1.16,8.23,1.54c2.53,0.34,5.23-0.59,7.49,1.57c0.56,0.54,2.08,0.06,3.16,0.08c3.62,0.08,7.11,0,10.72,1.43
		c3.22,1.28,7.33-0.93,10.62,1.75c0.49,0.4,1.57,0.03,2.38,0.06c3.88,0.11,7.65,0,11.53,1.42c3.25,1.19,7.32-0.72,10.6,1.78
		c0.34,0.26,1.05,0,1.59,0.04c3.86,0.27,7.61-0.2,11.56,1.37c3.4,1.35,7.52,0.71,11.42,1.58c7.07,1.58,14.52,1.48,22.09,2.11
		c0,1.3,0,2.57,0,3.55c2.95,2.95,5.62,5.62,8.33,8.33c0,51.16,0,102.36,0,153.75c-2.6,2.49-5.32,5.08-7.93,7.58
		c0.07,2.56-0.13,4.55,1.19,6.96c2.37,4.31,3.03,9.55,5.27,13.95c3.1,6.1,6.57,11.91,12.98,15.71
		C1667.79,832.43,1669.92,832.53,1672.45,832.79z"/>
	<path d="M1004.7,528.18c-4.26-0.57-8.27-1.1-12.27-1.63c-2.05-12.01-2.78-24.29-6.42-36.2c5.16-0.68,10.78-1.37,16.37-2.18
		c2.76-0.4,5.47-1.35,8.23-1.51c2.62-0.16,4.97-0.86,7.46-1.52c4.46-1.18,9.19-1.47,13.84-1.74c4.57-0.27,9.16-0.06,14.05-0.06
		c5.2-3.56,7.05-9.59,9.05-15.17c3.53-9.8,5.53-19.96,6.92-30.38c0.92-6.85,0.61-13.64,1.43-20.38c0.54-4.42,1.45-9.28,3.82-12.88
		c2.94-4.46,5.28-9.36,9.28-13.32c2.67-2.64,4.74-6.23,7.68-8.8c6.68-5.84,13.25-11.89,20.46-17.03c4.51-3.21,8.82-6.84,13.87-9.34
		c4.7-2.33,9.28-4.94,13.92-7.4c4.86-2.58,9.56-5.55,14.64-7.6c11.35-4.59,22.74-9.16,34.88-11.47c6.28-1.2,12.36-3.44,18.88-3.18
		c4.06-2.93,8.7-1.45,13.08-1.52c3.68-0.07,7.11-0.99,10.67-1.6c7.34-1.24,14.22,1.63,21.08,3.62c7.05,2.04,13.65,1.37,19.73-2.81
		c2.08-1.43,4.26-2.74,6.45-4.13c5.26,1.53,8.33,6,11.25,8.74c4.96,1.19,9.16,1.59,12.79,3.24c4.24,1.93,8.42,0.08,13,1.21
		c0.72,1.13,1.67,2.62,2.81,4.42c3,0,6.43,0,9.55,0c1.05-1.7,1.98-3.21,3.08-4.99c13.82,2.42,26.97,6.95,40.31,10.21
		c7.33,3.67,7.13,13.03,13.21,17.45c6.67,0.83,12.15,3.96,17.25,7.68c9.15,6.66,17.95,16.3,26.37,26.04
		c9.77,11.31,16.76,24.36,24.85,36.7c4.46,6.82,7,14.85,9.8,22.58c0.6,1.66,0.24,3.69,0.25,5.56c0.02,5.12-0.66,10.36,0.2,15.33
		c0.79,4.58,3.22,8.87,4.9,13.21c-2.03,5.75-5.65,10.02-11.06,13.78c3.58,2,6.34,3.54,9.1,5.08c-2.27,13.19-3,25.98,2.07,38.11
		c1.79-0.51,3.42-0.98,5.72-1.63c3.95-3.46,8.24-7.56,9.21-13.94c0.19-1.24,0.85-2.44,0.86-3.66c0.07-9.43-0.11-18.87,0.15-28.29
		c0.06-2.27-2.03-4.1-0.34-6.88c1.17-1.93,0.23-5.15,1.24-7.91c0.2,1.22,0.68,2.48,0.55,3.67c-1.12,10.39,2.24,20.5,1.8,30.87
		c-0.11,2.65,1.76,5.21,1.61,8.22c-0.13,2.47-0.68,4.96,0.89,7.69c1.29,2.25-0.2,5.93,0.73,8.56c2.67,7.52,1.87,15.63,4.55,23.16
		c0.86,2.41,1.28,5.97-2.09,7.92c-13,0.91-25.17,6.86-38.72,6.83c-5.75,4.77-14.02,2.59-20.31,6.38c-1.53-0.59-2.89-1.45-4.32-1.61
		c-6.23-0.67-12.63-0.49-18.68-1.89c-4.42-1.03-8.91-0.54-13.07-1.62c-4.14-1.07-8.48-0.41-12.24-1.65
		c-4.19-1.38-8.73-0.06-12.21-1.66c-4.03-1.85-8-0.13-11.54-1.47c-4.11-1.56-8.59-0.31-12.21-1.75c-4.25-1.68-8.52-0.21-12.31-1.53
		c-4.15-1.45-8.62-0.26-12.21-1.72c-4-1.62-7.94-0.26-11.52-1.48c-4.37-1.49-9.22-0.2-12.99-1.79c-4.32-1.82-8.66,0.09-12.31-1.5
		c-3.92-1.72-8.09-0.2-11.45-1.65c-3.95-1.7-7.73-0.93-11.55-1.42c-2.77-0.35-5.47-1.19-8.23-1.54c-2.54-0.32-5.25,0.54-7.47-1.6
		c-0.42-0.4-1.56-0.04-2.37-0.06c-3.88-0.11-7.65,0.01-11.53-1.42c-3.25-1.19-7.32,0.73-10.6-1.78c-0.34-0.26-1.05,0-1.59-0.04
		c-3.85-0.28-7.61,0.2-11.56-1.37c-3.4-1.35-7.81,0.55-11.36-1.86c-6.4,1.22-12.4-1.82-18.74-1.72c-3,0.05-6-1.14-9.04-1.47
		c-3.06-0.33-6.33,0.65-9.03-1.66c-5.35,1.18-10.26-1.83-15.5-1.61c-3.41,0.14-6.61-0.35-9.88-1.52c-3.09-1.1-6.92,1.33-9.84-1.69
		c-0.26-0.27-1.04-0.02-1.58-0.04c-4.14-0.18-8.16,0.1-12.35-1.38c-3.48-1.23-7.79,0.36-11.37-1.85
		c-6.13,1.21-11.87-1.74-17.93-1.72c-3.28,0.01-6.54-1.14-9.84-1.47c-3.07-0.31-6.2,0.36-9.09-1.57c-0.93-0.62-2.62-0.1-4.47-0.1
		c-1.01-8.56,1.6-17.84-4.57-25.73c-3.99,0-8.49,0-12.84,0c-1.11,1.11-2.06,2.06-3.05,3.05c-3.19,0-6.42,0-10.45,0
		c-1.05-3.01-2.18-6.25-3.31-9.5c-6.6,0-12.72,0-18.8,0c-2.91,2.91-5.76,5.76-8.85,8.85C997.22,517.17,1000.93,522.63,1004.7,528.18
		z M1450.57,554.69c-2,6.1-3.78,11.51-5.57,16.98c2.71,0.52,4.65,3.75,7.84,1.73c0.85-6.34,4.71-11.94,5.21-18.7
		C1455.17,554.69,1452.83,554.69,1450.57,554.69z"/>
	<path d="M2483.85,733.1c4.06,0.34,7.86,0.55,11.63,1.02c2.77,0.35,5.48,1.07,8.23,1.57c2.75,0.5,5.89-1.23,8.28,1.57
		c0.34,0.4,1.56,0,2.36,0.06c6.25,0.52,12.6,0.52,18.7,1.75c7.87,1.59,15.89,1.86,23.71,3.33c4.4,0.83,8.84,0.67,13.08,1.57
		c4.11,0.87,8.19,1.1,12.27,1.67c2.42,0.34,4.81,1.38,7.44,1.47c2.53,0.09,5.02-0.67,7.72,0.87c2.05,1.17,5.15,0.52,7.78,0.66
		c3.08,0.16,5.71,2.19,9.05,1.73c2.73-0.37,5.84-0.93,8.21,1.5c5.6-1.09,10.8,1.83,16.31,1.61c5.78-0.24,11.24,2.52,17.13,1.76
		c1.17-0.15,2.55,1.42,4.15,2.4c0,25.23,0.02,50.8-0.06,76.37c0,1.42-0.83,2.87-1.41,4.24c-5.11,12.11-12.15,23.13-19.45,33.97
		c-7.26,10.78-14.82,21.36-22.25,32.02c-0.28,4.23-4.83,4.19-6.76,6.76c-0.8,1.07-1.58,2.15-3.13,2.22
		c-1.37,0.59-3.05,0.86-4.06,1.83c-6.39,6.18-13.08,12.14-18.77,18.94c-4.3,5.14-8.69,10.73-8.42,18.68
		c-5.01-1.07-9.64-2.05-14.14-3.01c-5.71,1.02-11.46,2.05-18.29,3.27c-2.56-2.56-5.37-5.37-7.75-7.75
		c-2.97,2.98-6.35,6.36-9.72,9.74c-4.08-0.04-7.4-1.81-10.84,0.56c-2.48,1.7-6.31,0.11-9.83,1.47c-3.29,1.28-7.52,1-11.34,1.88
		c-3.45,0.8-4.62-0.01-9.98-3.74c-0.08-1.65-0.16-3.46-0.25-5.31c-0.49,0-0.97-0.15-1.23,0.02c-3.79,2.55-7.54,5.14-11.83,8.08
		c-3.02-3.01-5.99-5.98-9.34-9.32c-2.13,2-4.03,3.77-5.91,5.52c-11.07,0-22.13-0.19-33.17,0.08c-5.87,0.14-11.06-1.47-16.1-4.15
		c-7.42-3.96-14.95-7.05-23.66-7.49c-4.52-0.23-8.91-2.99-13.36-4.61c-4.29-1.56-8.52-2.86-13.18-3.46
		c-7.75-1-15.67-1.34-23.12-4.53c-7.28-3.12-13.81-7.12-20.26-11.72c-8.73-6.23-14.7-14.62-21.29-22.68
		c-10.5-12.83-17.83-27.49-25.35-42.07c-0.1-0.2-0.25-0.38-0.37-0.58c7.86-3.96,15.52-8.24,22.9-13.07
		c4.16-2.73,8.84-4.65,13.22-7.07c9.66-5.32,19.16-10.93,28.79-16.32c11.38-6.37,22.68-12.91,34.01-19.38
		c11.33-6.47,22.71-12.88,33.92-19.53c5.11-3.03,11.04-4.82,15.89-10.05c0,9.46,0.16,18.02-0.05,26.58
		c-0.18,7.39,0.35,14.67,2.37,22.4c2.1,4.08,3.77,9.5,11.45,11.39c0.87,0,3.54,0,6.71,0c2.97,3.64,6.09,7.47,9.17,11.25
		c0.63,0.06,1.15,0.1,1.67,0.16c6.7,0.77,12.54-1.17,18.28-4.72c4.62-2.86,9.95-4.56,15.15-6.85c-2.38-3.36-5.31-6.05-4.91-10.29
		c3.23-3.22,6.47-6.45,9.99-9.95C2483.85,782.68,2483.85,757.69,2483.85,733.1z"/>
	<path d="M131.45,548.48c3.73-1.21,7.45-2.98,11.34-3.56c7.55-1.12,14.51-4.28,22.08-5.45c7.64-1.18,15.01-4,22.54-5.97
		c7.07-1.85,14.2-3.45,21.27-5.28c7.54-1.95,15.02-4.08,22.55-6.05c7.06-1.84,14.16-3.54,21.23-5.37
		c7.54-1.95,15.05-4.01,22.59-5.96c4.39-1.14,8.83-2.08,13.2-3.28c3.6-0.99,7.13-2.23,11.43-3.59c-1.47,10.74,7,16.22,11.22,24.65
		c-0.31,1.94,1.39,5.12-1.36,7.28c0.62,2.76,1.22,5.45,1.64,7.33c-4.4,3.15-8.12,5.82-11.49,8.24c0,95.07,0,189.4,0,284.23
		c-8.75,0.94-17.26,3.58-25.87,5.55c-7.75,1.78-16.07,2.05-23.34,5.94c-6.84-0.64-13.04,2.52-19.58,3.64
		c-7.66,1.31-15.37,3.04-22.92,5.05c-5.84,1.55-11.76,2.99-17.62,4.13c-8.48,1.65-16.72,4.64-25.43,5.1
		c-2.97,3.18-7.36,0.88-10.93,3c-2.86,1.7-6.99,1.15-10.5,1.9c-3.35,0.71-6.62,1.81-10.42,2.87c0-2.55,0-5.18,0-7.82
		c0-53.63-0.01-107.27,0.01-160.9c0-8.17-2.35-16.12-1.76-24.4c0.58-8.04,0.13-16.16,0.13-24.25c0-8.35,0-16.71,0-25.06
		c0-8.09,0-16.17,0-24.26c0-8.35,0-16.71,0-25.06c0-8.09,0-16.17,0-24.26C131.45,554.19,131.45,551.5,131.45,548.48z"/>
	<path d="M2117.14,931.11c-9.98,1.46-20.06,2.89-29.7,5.73c2.07,2.71,4.11,5.36,6.19,8.08c-12.91,8.34-26.82,14.69-39.38,23.36
		c-5.1,3.52-11.11,5.7-16.57,8.73c-4.41,2.44-8.62,5.23-12.62,7.69c-8.27-1.58-15.79-5.34-24.23-4.7
		c-5.67,5.08-8.39,12.28-10.25,19.02c-1.79,6.49-5.69,9.09-10.66,11.71c-1.79,0.94-3.49,2.04-5.5,3.22c-3.95,0-8.26,0-12.22,0
		c-10.49-8.09-21.66-14.34-33.81-18.83c-1.42-0.52-3.07-0.55-4.61-0.56c-9.97-0.05-19.94-0.02-29.87-0.02
		c-0.8,0.8-1.56,1.56-2.43,2.43c0.52,2.8-1.57,5.98,0.86,9.11c-14.33-6.23-28.66-12.46-43.39-18.86c0.76-1.29,1.39-2.36,2.19-3.72
		c-0.6-1.35-1.31-2.94-2.05-4.61c-1.92-0.89-3.96-1.84-5.89-2.74c5.02-5.71,9.84-11.61,15.12-17.07c3.82-3.95,8.15-7.44,12.48-10.86
		c1.49-1.18,3.62-2,5.53-2.15c13.56-1.03,25.44,2.88,35.17,12.64c0.57,0.57,1.14,1.14,1.98,1.98c5.04-2.37,10.91-3.7,15.14-7.57
		c4.29-3.93,10.6-5.8,12.28-12.46c4.89,2.85,8.5,6.68,13.65,7.73c2.73,0.55,5.45,1.17,8.19,1.71c7.77,1.52,15.54,3.01,23.58,4.56
		c2.06-5.9,3.95-11.31,5.9-16.9c-1.3-1.46-2.44-2.73-4.81-5.38c4.16,1.44,6.91-0.53,9.71,1.75c1.01,0.82,3.02,0.52,4.58,0.53
		c6.74,0.05,13.48,0.02,20.22,0.02c7.79,0,11.1,0.88,18.71,5.13c0.96-0.88,2.06-1.88,2.9-2.65c0.39-5.66-3.85-8.62-6.18-12.41
		c-1.06-1.72-4.31-2.36-6.69-2.97c-9.2-2.32-16.01-8.17-22.08-14.95c-2.87-3.21-4.8-7.23-7.54-10.58
		c-8.89-10.85-15.35-23.11-21.05-35.78c-2.99-6.65-4.45-13.82-6.11-20.95c-2.72-11.63-2.4-23.5-1.1-34.91
		c1.89-16.57-0.47-33.15,1.51-49.49c1.77-14.67,0.98-29.24,1.28-43.85c0.3-14.81,0.07-29.63,0.07-45.11
		c4.13,0.5,8.27-1.5,12.14,1.49c0.51,0.39,1.57,0.03,2.37,0.1c6.25,0.53,12.66,0.38,18.68,1.85c4.17,1.02,8.39,0.5,12.27,1.58
		c4.14,1.16,8.44,0.49,12.26,1.64c4.17,1.26,8.29,0.77,12.31,1.54c3.83,0.73,7.56,1.41,11.48,1.62c2.71,0.14,5.25,1.71,8.24,1.58
		c2.5-0.1,5-0.57,7.73,0.79c2.38,1.19,5.94-0.12,8.53,0.86c4.36,1.66,8.98,0.51,13.07,1.71c4.45,1.31,9.01,0.35,13.09,1.58
		c6.45,1.95,13.32,0.89,19.9,3.79c0,5.31,0.13,10.93-0.04,16.54c-0.19,6.28,1.3,12.13,3.08,18.13c1.88,6.32,4.53,12.95,3.26,19.6
		c-1.86,9.76-0.48,19.62-1.75,29.25c-0.79,6.02-0.99,11.97-1.41,17.96c-0.23,3.27-1.33,6.47-1.77,8.51
		c3.09,5.52,6.01,9.72,7.88,14.35c1.92,4.74,5.72,7.44,9.48,10.82c8.64-0.95,16.89,2.06,25.35,4.22c4.27,1.09,8.96,0.57,13.73,0.78
		c3.18-2.71,6.33-5.4,9.52-8.12c3.9,4.02,5.67,9.47,6.92,14.73c3.59,15.06,4.25,26.1,3.33,41.49c-0.27,4.57-2.62,7.62-6.97,10.12
		c-9.81,5.66-19.99,10.71-29.29,17.32c-5.04,3.58-11.14,5.64-16.55,8.75c-8.3,4.78-16.37,9.94-24.63,14.79
		C2124.39,927.59,2120.73,929.26,2117.14,931.11z"/>
	<path d="M2720.22,764.8c3.74,0.67,7.93-1.55,11.74,1.59c0.32,0.26,1.05,0,1.59,0.04c6.24,0.53,12.5,0.98,18.73,1.65
		c2.77,0.3,5.47,1.2,8.23,1.53c2.54,0.3,5.25-0.54,7.46,1.61c0.42,0.4,1.56,0.04,2.37,0.06c3.88,0.1,7.65,0,11.53,1.42
		c3.25,1.2,7.32-0.75,10.6,1.77c0.34,0.26,1.05,0,1.59,0.04c3.85,0.31,7.61-0.24,11.56,1.36c3.38,1.38,7.81-0.59,11.36,1.86
		c6.13-1.17,11.89,1.59,17.92,1.7c3.29,0.06,6.55,1.13,9.85,1.49c3.06,0.34,6.34-0.68,9.03,1.66c5.6-1.15,10.84,2.27,16.29,1.5
		c3.65-0.52,6.51,1.49,9.85,1.8c3.03,0.29,6.45-1.48,9.08,1.52c0.23,0.27,1.04,0,1.58,0.04c6.78,0.53,13.58,0.98,20.34,1.66
		c2.77,0.28,5.47,1.18,8.23,1.53c2.54,0.32,5.27-0.52,7.45,1.62c0.27,0.27,1.04,0,1.58,0.04c3.85,0.33,7.61-0.34,11.56,1.38
		c3.36,1.46,7.78-0.76,11.41,1.78c0.72,0.51,2.1,0.06,3.18,0.08c3.62,0.04,7.14,0,10.71,1.47c2.99,1.23,6.82-1.11,9.85,1.69
		c0.58,0.54,2.08,0.06,3.16,0.08c3.62,0.08,7.11,0.03,10.72,1.42c3.23,1.25,7.33-0.84,10.6,1.77c0.33,0.26,1.05,0,1.59,0.04
		c3.85,0.33,7.61-0.34,11.56,1.38c3.36,1.46,7.83-0.84,11.38,1.82c0.35,0.26,1.05,0,1.59,0.04c3.86,0.25,7.61-0.17,11.55,1.37
		c3.42,1.34,7.81-0.56,11.36,1.86c6.4-1.22,12.4,1.84,18.73,1.72c3-0.05,6,1.14,9.03,1.47c3.06,0.33,6.22-0.49,9.1,1.56
		c0.89,0.64,2.65,0.28,3.97,0.06c3.29-0.53,6.02,0.88,9.13,2.35c-0.9,21.45,2.78,42.93,1.6,64.55c-0.22,4.03-0.18,8.09,0,12.12
		c0.45,10.02,0.77,20.06,1.76,30.03c0.3,2.99,2.63,5.77,4.08,8.76c-54.94,0-110.3,0-165.45,0c-0.68-3.67-1.33-7.17-2.12-11.45
		c1.89-3.51,5.32-7.48,6.11-11.92c1.12-6.25,0.28-12.85,0.28-18.84c-2.5-4.54-4.78-8.68-7.4-13.46c-1.72,1.58-3.11,2.4-3.87,3.62
		c-8.16,13.04-16.34,26.07-24.27,39.26c-5.61,9.33-13.41,16.11-22.86,21.19c-3.73,2.01-14.35,4.73-18.2,4.88
		c-3.6,0.14-7.07,0.03-10.76,1.28c-3.09,1.05-6.14,1.91-9.1,3.48c-8.72,4.63-17.91,7.54-28.01,6.58c-2.94-0.28-6.18,0.7-8.83-0.22
		c-3.83-1.33-6.81-4.21-7.44-8.7c-3.1-2.19-6.55-2.61-10.29-2.51c-7.22,0.2-14.44,0.06-22.11,0.06c1.12-2.19,1.99-3.88,2.97-5.79
		c-0.26-0.3-0.63-1.16-1.21-1.32c-3.39-0.96-6.47-3.01-10.25-2.62c-8.11,0.82-14.19-3.21-20.05-8.23
		c-8.1-6.95-12.67-15.95-15.89-25.78c-1.18-3.59-1.33-7.51-2.5-11.1c-2.38-7.27-2.05-15.05-4.64-22.32
		c-0.99-2.77-0.3-5.98-1.57-9.06c-1.22-2.95,0.56-6.02,3.38-8.75c-0.63-8.25-1.66-16.89-1.87-25.54
		c-0.32-13.47-0.15-26.95-0.03-40.42c0.03-2.77-0.26-5.41,1.24-8.39C2722.28,772.59,2720.65,768.69,2720.22,764.8z"/>
	<path d="M2911,367.66c1.97-4.05,7.63-3.61,8.37-8.68c0.1-0.7,0.87-1.32,0.94-2.02c0.6-5.97,0.92-11.97,1.71-17.91
		c0.77-5.76,2-11.46,3.04-17.28c2.36-0.13,4.17-0.23,5.96-0.33c0.23-0.5,0.64-0.96,0.62-1.4c-0.72-17.33,2.9-34.53,1.65-51.88
		c-0.02-0.27,0-0.53,0-0.24c0.81-1.56,1.38-2.67,2.12-4.1c0.06-0.03,0.56-0.54,0.93-0.45c2.77,0.65,4.95-1.14,7.41-1.72
		c4.18-0.98,8.43-1.66,12.63-2.58c4.21-0.92,8.34-2.91,12.86-2.21c7.26-3.82,15.75-3.02,23.3-6.21c2.76-1.16,6.47-1.15,9.75-1.77
		c8.96-1.69,17.86-3.58,26.65-5.98c3.43-0.94,6.97-0.98,10.45-2.05c5.56-1.7,11.75-1.54,17.12-3.62c5.48-2.12,11.67-1.2,16.68-4.6
		c6.88,0.88,12.86-3.52,19.67-3.36c1.57,0.04,3.17-1.05,5.27-1.8c0.49,3.69-0.51,7.25,1.74,10.17c0.39,0.51,0.31,1.68,0.02,2.37
		c-3.12,7.43-1.08,15.2-1.53,22.79c-0.29,4.83-0.14,9.7-0.01,14.55c0.05,2.01-0.32,3.92,1.08,6.06c1.12,1.71,1.2,4.98,0.35,6.95
		c-2.45,5.67-1.2,11.46-1.41,17.18c-0.24,6.46-0.15,12.93-0.01,19.4c0.05,2.26-0.74,4.59,1.29,6.8c0.85,0.92,0.63,4.04-0.3,5.18
		c-4.99,6.11-1.54,12.12-0.3,18.17c0.36,1.75,0.82,3.48,1.25,5.3c-4.75,5.19-10.99,7.6-16.61,10.94
		c-5.84,3.46-11.66,6.95-17.56,10.31c-4.57,2.6-9.48,4.65-13.82,7.56c-11.95,8-25.18,13.8-36.99,22.06
		c-5.07,3.55-11.16,5.6-16.55,8.74c-8.49,4.95-16.74,10.31-25.19,15.35c-4.3,2.56-8.76,4.84-13.2,7.16
		c-12.67,6.62-24.71,14.36-37.25,21.25c-9.89,5.44-19.64,11.28-28.9,17.27c-4.53,0.95-8.5-0.05-12.5-1.27
		c-5.76-1.76-11.56-3.37-17.39-4.86c-9.49-2.43-19.12-4.27-28.42-7.5c-4.98-1.72-10.25-2.59-15.39-3.85
		c-7.31-1.8-14.69-3.27-21.83-5.84c-4.95-1.78-10.25-2.56-15.38-3.88c-9.48-2.45-19.05-4.47-28.41-7.49
		c-6.42-2.07-13.1-3.7-19.7-5.07c-7.69-1.6-15.21-3.8-23.03-5.63c-2.95-5.87-2.09-12.49-2.15-18.99c-0.04-5.66-0.01-11.32-0.01-16.8
		c6.59-10.72,10.67-22.22,13.12-34.36c6.48-6.48,12.76-13.17,19.49-19.38c7.32-6.74,14.7-13.53,22.78-19.26
		c3.7-2.62,7.65-5.81,12.59-6.52c1.98-0.28,3.94-0.65,6.41-1.06c-0.71,3.53-1.29,6.39-1.93,9.57c6.61,1.33,12.11-0.66,17.59-2.66
		c4.32,1.15,8.68,2.32,13.72,3.66c0.43,2.68,1.01,5.65,1.35,8.65c0.21,1.86,0.14,3.77,0.02,5.65c-1.19,19.77,1.41,39.43,1.94,59.14
		c0.24,8.83,2.78,17.87,7.74,25.79c2.49,3.99,5.47,7.24,10.38,10.2c0.33-0.37,0.95-0.75,0.94-1.11c-1.11-22.99,2.6-45.87,1.68-68.85
		c-0.15-3.77,0.38-7.6-0.1-11.31c-0.97-7.49,1.73-14.59,1.96-21.97c0.13-3.97,2.93-7.84,4.61-11.96c7.79,1.85,14.84,3.75,20.97,7.69
		c10.26,6.6,20.38,13.45,30.27,20.58C2900.67,358.04,2905.16,362.57,2911,367.66z"/>
	<path d="M347.93,440.93c-0.41-1.47-1.21-3.12-1.27-4.8c-0.17-5.39-0.06-10.78-0.06-16.17c0-26.66,0-53.32,0-80.45
		c4.96-1.14,9.81-2.53,14.76-3.32c5.39-0.86,10.85-1.36,16.3-1.63c5.38-0.27,10.91,0.71,16.14-0.2c16.74-2.92,33.54-1.02,50.3-1.39
		c16.7-0.37,33.42-0.08,49.81-0.08c8.04,5.42,15.86,10.68,24.24,16.33c6.02-4.29,12.35-9,18.89-13.38
		c4.15-2.78,8.07-6.12,13.29-6.93c1.76-0.27,3.48-0.81,4.78-1.12c4.33,2.17,5.26,6.08,6.09,9.48c9.06,1.7,16.39-1.08,23.83-4.07
		c6.8-2.74,13.65-4.99,21.3-5.42c8.65-0.48,17.27-2.79,25.49-7.36c-3.17-5.08-8.02-8.12-13.31-12.55c15.13-2.55,28.85-4.91,43-4
		c3.26-13.03,2.49-25.92,1.44-38.76c10.36,3.45,39.79,4.69,47.16,1.2c1.27-4.18-0.14-7.69-2.17-11.54
		c-1.64-3.13-4.76-6.14-3.54-11.05c3.05,0.72,5.92,1.39,9.1,2.14c0,2.2,0,4.55,0,7.8c-0.57,0.41-1.83,1.33-3.36,2.44
		c5.23,3.2,9.98,6.11,14.79,9.05c0,1.78,0,3.34,0,5.78c-1.6,1.29-3.75,3.02-6.36,5.12c4.63,9.28,9.5,19.03,14.65,29.37
		c-11.94-1.01-22.05,5.92-33.91,6.72c0.62,0.97,1.52,1.73,1.49,2.44c-0.34,7.15,2.94,13.31,5.48,19.6
		c6.06,15.02,12.75,29.77,19.9,44.32c0.98,1.99,1.43,4.24,2.31,6.94c-0.98,0.72-2.15,2.32-3.36,2.34
		c-5.21,0.12-10.03,2.04-14.76,3.58c-5.51,1.79-11.2,2.71-16.7,4.52c-7.15,2.35-14.54,4.04-21.9,5.7
		c-9.58,2.17-18.86,5.41-28.48,7.45c-6.85,1.45-13.48,3.88-20.26,5.7c-4.85,1.3-9.72,2.7-14.6,3.73
		c-7.43,1.56-14.54,4.16-22.01,5.61c-9.84,1.91-19.34,5.41-29.17,7.63c-9.03,2.04-17.8,5.17-26.74,7.6
		c-7.05,1.92-14.18,3.55-21.29,5.22c-12.74,2.99-25.23,6.92-37.98,9.92c-5.77,1.36-10.85,1.77-16.56-0.02
		c-3.56-1.12-7.82,0.45-11.4-1.81c-6.13,1.2-11.88-1.7-17.93-1.71c-3.01,0-6.03-0.95-9.03-1.53c-3.01-0.58-6.45,1.44-9.09-1.54
		c-0.24-0.27-1.03-0.03-1.56-0.08c-6.25-0.53-12.5-0.98-18.73-1.65c-2.77-0.3-5.47-1.17-8.23-1.54c-2.53-0.33-5.3,0.65-7.45-1.62
		c-0.25-0.27-1.04,0-1.58-0.04C362.7,442.26,355.69,441.63,347.93,440.93z"/>
	<path d="M817.33,937.91c0-7.2,0-13.87,0-20.74c-5.14-0.1-9.11-3.4-14.09-3.62c-4.87-0.21-9.71-1.19-15.07-1.89
		c5.15-5.84,9.47-12.21,15.2-16.83c6.66-5.37,12.34-11.64,18.94-17.53c-1.01-0.89-1.83-2.24-2.83-2.39
		c-5.37-0.79-10.79-1.28-16.12-1.87c-2.38-5.89-5.21-11.31-10.55-15.3c9.83-3.74,19.37-7.38,29.58-11.27
		c-3.05-12.7-10.39-23.4-17.82-33.91c6-4.92,11.99-9.84,18.3-15.02c-3.56-5.07-8.74-7.66-13.59-8.1c-5.2-0.47-10.21-2.13-15.82-2.04
		c0-17.09,0-34.18,0-51.27c0.57-0.57,1.14-1.14,1.88-1.88c4.94-0.16,9.78-2.3,14.63-2.91c6.66-0.83,12.98-2.91,19.52-4.05
		c5.84-1.02,11.82-2.68,17.63-3.9c6.44-1.35,12.93-2.96,19.44-4.16c7.88-1.45,15.8-3.22,23.59-5.32c6.1-1.64,12.34-2.77,18.52-4.11
		c6.19-1.33,12.39-2.62,18.58-3.95c6.44-1.37,12.86-2.78,19.3-4.14c2.73-0.58,5.67-0.65,8.18-1.72c4.54-1.93,9.52-1.57,14.04-3.19
		c4.57-1.63,9.41-1.91,14.04-3.19c2.96-0.82,5.85-1.63,9.02-1.78c2.9-0.13,5.86-1.35,8.55-2.62c2.86-1.34,5.87-0.05,9.02-1.76
		c3.57-1.94,8.46-1.45,13.1-2.06c0,5.92,0,11.5,0,17.39c0.11-0.11-0.05,0.12-0.27,0.26c-0.2,0.14-0.46,0.26-0.7,0.26
		c-13.97,0.01-27.94,0.01-42.42,0.01c0,4.26,0,8.24,0,12.22c0,19.67-1.16,39.43,0.38,58.99c1.17,14.92,0.9,29.76,1.18,44.63
		c0.29,15.35,0.06,30.72,0.06,46.08c0,15.09,0.07,30.18-0.06,45.27c-0.02,3.04,0.57,6.04-1.33,9.17c-1.17,1.92-1.1,5.87,0.16,7.73
		c2.35,3.45,0.15,6.73,1.94,10.48c-28.13,0-55.27,0-82.41,0C872.09,937.91,845.14,937.91,817.33,937.91z"/>
	<path d="M131.79,400.59c-0.66-6.86-1.58-13.58-1.89-20.32c-0.33-6.99-0.07-14.01-0.07-21.01c0-56.59,0-113.18,0-169.76
		c0-2.67,0-5.35,0-8.67c7.33,0,14.56-0.47,21.71,0.12c9.35,0.77,18.34-2.21,27.64-1.82c9.15,0.38,18.32,0.08,27.68,0.08
		c3.04-4.35,5.07-8.88,5.76-14.58c0.84-6.9,1.13-14.21,5.48-21.01c6.89,0,14.54-0.97,21.8,0.29c6.59,1.14,13.24,0.23,19.54,1.58
		c6.59,1.41,13.18,0.45,19.55,1.61c4.13,0.76,8.16,1.36,12.31,1.37c7.32,0.01,7.32-0.01,12.98-5.39c1.12-7.1,2.7-13.95,5.17-20.61
		c13.91,1.21,20.5,11.04,27.45,20.8c0,30.6-0.38,61.59,0.12,92.57c0.37,22.99-3.37,45.83-1.44,68.53c-2.64,2.45-5.36,3.44-8.37,4.44
		c-4.93,1.64-9.76,3.99-14.1,6.84c-3.55,2.33-7.09,2.89-10.96,2.65c-5.44,6.3-13.14,8.73-20.22,11.93
		c-7.51,3.39-14.7,7.53-22.29,10.58c-11.58,4.65-22.27,11.18-34.05,15.39c-5.6,2-10.74,5.27-16.13,7.87
		c-10.33,4.99-20.53,10.27-31.08,14.75c-8.28,3.52-16.06,8.11-24.39,11.38C146.38,393.19,139.35,397.26,131.79,400.59z
		 M295.1,195.53c0,37.02,0,73.3,0,109.42c3.35,0,6.41,0,9.17,0c0-36.72,0-73.01,0-109.42C301.13,195.53,298.24,195.53,295.1,195.53z
		"/>
	<path d="M2148.03,302.58c3.44,14.3,1.93,28.67,2.38,42.52c0.95,0.95,1.52,1.52,2.35,2.35c12.38,0,25.02,0.14,37.65-0.12
		c2.63-0.05,5.22-1.58,8.05-2.49c1.81,10.26-1.74,21.53,2.94,33.9c-0.41-0.31,0.85,0.32,1.7,1.31c5.89,6.92,11.65,7.62,21.06,4.7
		c5.02-1.56,10.34-2.04,15-4.86c0.99-0.6,2.64-0.09,4.23-0.09c4.61,6.94,1.22,14.76,2.78,22.47c-5.21,1.23-9.84,2.38-14.5,3.39
		c-2.99,0.65-6.59,0.26-8.9,1.83c-3.49,2.39-7.49,0.73-11.06,2.81c-2.88,1.68-7.08,0.91-10.49,1.93
		c-7.54,2.25-15.35,3.24-22.91,5.24c-5.84,1.55-11.76,3.02-17.62,4.14c-8.49,1.62-16.72,4.64-25.44,5.09
		c-2.97,3.17-7.36,0.88-10.93,3c-2.86,1.7-7.07,0.93-10.49,1.93c-7.54,2.21-15.33,3.28-22.9,5.26c-5.84,1.53-11.77,2.97-17.63,4.12
		c-8.48,1.66-16.72,4.62-25.44,5.1c-2.95,3.23-7.36,0.8-10.94,3c-2.82,1.73-7.06,0.96-10.48,1.93c-7.33,2.08-15.02,2.85-22.18,5.08
		c-6.33,1.98-12.86,2.57-19.13,4.49c-4.32,1.33-8.82,2.08-13.86,3.23c-0.22-1.2-0.48-2.59-0.78-4.23c-2.67-2.67-5.53-5.53-7.98-7.98
		c-5.9-2.33-11.6-3.29-17.23-1.78c-5.23,1.4-10.59,1.62-16.4,3.31c-2.27-2.27-4.52-4.52-6.91-6.92c-0.9,0.44-2.21,1.1-3.84,1.9
		c-0.33-1.05-0.89-1.84-0.73-2.43c2.19-8.04,0.49-16.43,1.88-24.36c1.16-6.61,0.84-13.08,1.34-19.6c0.37-4.77-2.45-8.99-1.79-13.91
		c0.61-4.5,1.07-9.41-0.11-13.66c-1.46-5.25-1.12-10.37-1.45-15.57c-0.06-0.88-1.01-1.71-1.58-2.61c1.97-7.89,7.96-9.46,15.05-10.34
		c8.98-1.12,17.63-3.86,26.55-8.5c1.43,1.7,2.96,3.54,4.51,5.37c1.55,1.83,3.12,3.64,5.2,6.04c1.22-1.63,1.86-2.49,3.14-4.2
		c1-0.45,3.04-1.38,5.44-2.46c0-10.01,0.44-20.23-0.14-30.39c-0.44-7.76,1.84-15.14,1.79-22.79c-0.05-8.44-2.64-16.69-1.76-25.22
		c0.13-1.27-1.15-2.68-2.15-4.81c8.24,0.13,15.18,3.33,22.44,4.7c7.39,1.4,14.63,3.64,21.92,5.61c7.04,1.9,14.16,3.4,21.16,5.51
		c7.23,2.18,14.73,3.48,22.05,5.37c7.28,1.88,14.46,4.19,21.76,6c7.36,1.83,14.94,2.89,22.21,5.01c7.01,2.04,14.14,3.54,21.15,5.52
		C2133.3,298.51,2140.58,300.51,2148.03,302.58z"/>
	<path d="M1972.11,475.63c4.75-0.77,9.23-0.34,12.17-2.27c3.61-2.37,7.56-0.29,11.14-2.72c2.69-1.82,7.06-0.9,10.46-1.96
		c7.3-2.27,14.88-3.19,22.21-5.05c4.13-1.05,8.42-1.49,12.5-2.89c8.6-2.96,18.03-2.65,26.42-6.52c6.64,0.95,12.46-2.65,18.85-3.44
		c7.99-0.98,15.85-3.17,23.68-5.21c5.85-1.52,11.8-2.61,17.65-4.18c6.14-1.65,12.93-1.35,18.71-3.7c3.67-1.49,7.51-0.43,11.08-2.66
		c2.8-1.74,7-1.1,10.49-1.9c7.85-1.81,15.72-3.64,23.44-5.9c3.19-0.93,6.42-0.58,9.73-1.83c4.6-1.74,9.84-2.09,14.73-3.49
		c4.6-1.32,9.4-2.28,14.06-3.01c5.31-0.83,10.37-2.41,15.95-3.56c0,2.94,0,5.8,0,9.19c-5.49,1-6.17,6.83-8.89,10.87
		c-0.75,4.29-1.5,8.58-2.27,13.03c-5.21,2.95-10.63,6.01-16.07,9.09c-2.8-3.92-5.58-7.81-8.39-11.74c-5.12,1.3-5.25,6.71-8.84,8.91
		c-3.51,2.15-6.63,4.94-10.62,7.97c-4.99-3.64-10.35-7.55-15.58-11.35c-2.43,2.74-5.07,5.7-7.04,7.92
		c-6.76-0.44-11.56,0.13-15.86,3.83c1.24,21.95-2.38,43.97-1.63,66.15c0.58,17.24,0.12,34.51,0.12,51.76c0,1.84,0,3.68,0,6.13
		c-5.09-2.81-9.59-5.3-14.06-7.77c-1.91,4.11-2.15,8.94-2.25,13.93c-0.08,3.53-1.88,6.9-1.57,10.66c0.3,3.59,0.74,7.36-1.52,10.66
		c-0.13,0.18-0.03,0.53-0.01,0.8c0.83,11.17-2.09,22.1-1.85,33.31c0.2,9.39-2.23,18.79-1.18,29c-5.13-0.92-9.55,0.32-14.35-1.56
		c-3.86-1.51-8.6-0.67-13.02-1.69c-6.05-1.4-12.46-1.2-18.69-1.88c-2.5-0.27-4.94-1.08-7.43-1.56c-2.49-0.48-5.37,1.12-7.49-1.58
		c-0.31-0.39-1.55,0-2.36-0.06c-6.25-0.52-12.61-0.51-18.71-1.75c-7.88-1.59-15.91-1.81-23.72-3.32c-4.41-0.86-8.85-0.67-13.08-1.58
		c-4.12-0.89-8.47-0.56-12.22-1.74c-3.96-1.24-7.73-0.85-11.55-1.37c-3-0.4-5.94-1.31-9.66-2.17c0-3.18-0.19-6.89,0.03-10.57
		c1.16-18.97-2.18-37.79-1.75-56.76c0.44-19.13,1.52-38.42-0.3-57.39C1971.77,513.72,1973.57,494.85,1972.11,475.63z"/>
	<path d="M816.89,512.06c8.08,0.7,15.82,0.63,23.17,2.31c3.64,0.83,7.14,0.91,10.71,1.35c3.03,0.37,6.01,1.18,9.04,1.54
		c3.05,0.37,6.35-0.75,9.03,1.66c5.6-1.14,10.84,2.27,16.29,1.5c3.65-0.51,6.52,1.48,9.85,1.8c3.03,0.29,6.45-1.46,9.08,1.52
		c0.24,0.27,1.04,0,1.58,0.04c6.24,0.53,12.64,0.42,18.68,1.83c4.42,1.03,8.91,0.55,13.07,1.62c4.14,1.06,8.51,0.37,12.23,1.66
		c4.47,1.54,9.09,0.19,13.07,1.61c4.21,1.5,8.23,1.06,12.48,1.43c0.65,0.69,1.39,1.47,2.44,2.58c0,19.76,0,39.89,0,61.67
		c1.99-2.97,3.62-4.54,4.19-6.43c2.53-8.41,7.16-16.25,7.03-25.39c3.69-4.07-0.61-9.98,3.24-14.02c0-4.84,0-9.67,0-15.16
		c3.06,0.43,5.76-0.75,9,1.26c2.14,1.33,5.8,0,8.71,0.38c2.71,0.36,5.62,0.92,7.88,2.31c1.8,1.11,2.57,3.78,4.15,5.41
		c1.86,1.92,0.93,4.09,0.94,6.08c0.08,40.95,0.06,81.91,0.06,123.64c-3.39,1.04-6.89,2.62-10.54,3.11
		c-8.84,1.18-17.34,3.9-26.13,5.38c-6.69,1.13-13.27,3.08-19.95,4.49c-7.92,1.68-15.81,3.51-23.73,5.17
		c-6.67,1.39-13.27,3.13-19.94,4.54c-7.92,1.68-15.81,3.51-23.74,5.16c-6.67,1.39-13.27,3.13-19.94,4.54
		c-7.92,1.68-15.81,3.51-23.74,5.16c-6.67,1.39-13.26,3.13-19.94,4.54c-7.92,1.68-15.77,3.67-23.75,5.13
		c-3.69,0.67-7.27,1.94-10.92,2.89c-2.19,0.57-4.41,1.06-7.16,1.72c-0.09-1.57-0.24-3.09-0.24-4.61c-0.02-10.24,0.3-20.49-0.1-30.72
		c-0.35-8.94-2.25-17.8-1.54-26.82c0.1-1.28,0.01-2.58,0.01-4.28c8.56,5.17,14.74,12,21.08,19.37c0.34,0,1.41,0,2.84,0
		c3.74-5.98,6.47-12.19,6.99-19.7c0.78-11.26-4.31-20.29-9.66-29.2c-3.81-6.34-8.67-12.05-13.03-18.07
		c-4.52-6.24-8.64-18.01-9.98-25.81c-0.56-3.28-1.7-6.43-1.51-9.87c0.18-3.22,0.04-6.47,0.04-10.33c5.34,0.47,10.63,1.12,15.94,1.35
		c5.33,0.23,10.67,0.05,15.61,0.05c0.97-0.97,1.54-1.54,2.16-2.16c-0.18-0.35-0.27-0.9-0.57-1.07c-3.71-2.1-7.45-4.15-11.87-6.6
		c-3.22,0-7.19,0-11.97,0c5.69-12.84,10.98-25.09,25.07-30.81C820.62,521.72,818.84,517.12,816.89,512.06z"/>
	<path d="M807,502.19c3.91-7.31,8.37-13.98,0.57-22.36c-6.9-3.93-15.4-8.77-23.68-13.48c4-1.62,21.28,1.83,28.15,4.22
		c0.93-3.69,0.32-7.39,0.44-11.02c0.11-3.4,0.02-6.81,0.02-11.41c-4.78,3.57-8.46,6.32-12.44,9.29c-2.23,0.27-4.6-0.92-7.02-1.31
		c-2.85-0.46-3.84-2.67-5.85-3.63c-5.33-2.54-7.28-7.12-9.26-12.26c-0.94-2.44-0.94-4.61-0.95-6.85
		c-0.12-16.98-0.06-33.95-0.06-50.93c2.21-4.32,6.94-2.84,10.34-3.98c9.49-3.18,19.35-5.31,29.03-8.01
		c7.54-2.1,15.33-3.28,22.9-5.28c6.56-1.73,12.97-3.91,19.69-5.21c7.61-1.48,15.01-4.06,22.53-6.03c7.07-1.85,14.2-3.43,21.26-5.29
		c7.27-1.92,14.39-4.83,21.77-5.83c7.38-1,13.85-5.27,21.4-5.08c1.93-3.3,6.43,0.06,8.36-3.24c3.01,0.84,5.48-1.08,8.22-1.61
		c3-0.58,6.04-0.99,9.02-1.68c0.91-0.21,1.68-1.09,2.75-1.83c6.26,5.13,13.69,7.18,21.53,8.45c3.55,0.57,6.96,1.9,10.67,1.54
		c3.4-0.33,6.33,1.75,9.83,1.85c3.28,0.09,6.5,2.26,9.82,3.55c0,6.04,0.19,11.96-0.04,17.86c-0.73,18.68,2.88,37.23,1.65,55.92
		c2.26,6.1,1.43,12.45,1.7,18.73c0.07,1.63,1.1,3.22,1.97,5.6c-1.55,0-2.56,0.12-3.52-0.02c-5.63-0.84-10.53,1.65-15.6,3.36
		c-1.17,0.4-2.25,1.34-3.42,1.44c-3.08,0.27-6.2-0.29-9.1,1.57c-0.68,0.44-2.3-0.58-3.88-1.05c-3.57,1.8-7.68,3.71-10.77,7.33
		c-3.88,4.55-6.26,9.57-7.73,15.44c-1.24,4.96-1.39,9.79-1.4,14.74c-0.03,10.78-0.05,21.56,0.03,32.34c0.01,1.7,0.54,3.39,0.92,5.55
		c-3.42-0.25-7.52,1.55-11.41-1.29c-0.53-0.39-1.56-0.08-2.35-0.15c-6.25-0.53-12.51-0.91-18.73-1.69
		c-2.75-0.34-5.22-1.84-8.24-1.67c-2.47,0.13-4.96,0.67-7.7-0.87c-2.27-1.27-5.81-0.02-8.58-0.71c-7.82-1.93-15.9-1.86-23.7-3.37
		c-4.41-0.85-8.91-0.54-13.06-1.62c-4.15-1.09-8.32-0.71-12.27-1.62c-2.48-0.57-4.87-1.27-7.46-1.46c-2.53-0.18-5.01,0.72-7.71-0.94
		c-1.98-1.21-5.39,0.15-7.74-0.74c-4.34-1.65-8.91-0.63-13.07-1.7c-4.14-1.06-8.6-0.26-12.21-1.67
		C817.68,502.16,812.75,503.57,807,502.19z"/>
	<path d="M1737.55,516.13c0.96-4.86-1.31-9.13,1.85-12.93c0.27-0.32,0.09-1.06,0.03-1.59c-1.23-10.11,2.64-19.98,1.57-30.04
		c-1.11-10.33-1.96-20.78-7.27-30.47c-5.68,1.5-6.42,7.82-10.51,10.95c-4.22,3.23-7.67,7.45-10.93,10.71
		c0.49,3.14,1.18,5.63,1.21,8.12c0.11,12.66,0.22,25.33-0.04,37.99c-0.09,4.31-1.27,8.6-1.94,12.9c-6.68,1.31-13.37,2.61-20.61,4.03
		c0-6.62,0.14-12.5-0.04-18.36c-0.21-6.8,1.07-13.71-1.5-20.38c-0.53-1.38-0.08-3.15-0.08-4.68c6.18-1.51,6.01-6.74,6.36-11.07
		c0.93-11.53-2.47-22.17-7.78-32.29c-1.16-2.2-2.02-4.56-3.41-7.76c1.12-8.48-2.36-17.73-1.76-27.34c0.58-9.4,0.71-18.9-0.07-28.27
		c-0.56-6.75-1.78-13.58-3.86-20.16c-2.48-7.82-4.73-15.72-7.07-23.59c0.19-0.19,0.38-0.54,0.57-0.55
		c12.16-0.58,24.33-1.05,36.49-1.74c3.57-0.2,7.09-1.25,10.65-1.51c3.75-0.27,7.89,0.91,11.24-0.28c5.77-2.04,11.48-0.93,17.19-1.42
		c4.64-0.4,9.14-1.59,13.87-1.78c6.67-0.27,13.08,1.42,18.76,3.71c12.26,4.96,24.14,10.88,35.32,18.28
		c7.79,5.16,15.83,9.98,23.5,15.37c2.69,1.89,5.79,3.29,8.22,5.46c7.73,6.89,15.65,13.66,22.64,21.25
		c3.49,3.79,6.53,8.23,8.94,13.17c6.16,12.58,12.3,25.06,15.97,38.69c1.18,4.38,2.2,8.78,3.37,13.15c1.11,4.16,2.44,8.2,2.9,12.56
		c0.42,3.93,1.73,7.76,2.79,12.22c-4.29,1.02-8.91,2.19-13.55,3.21c-2.98,0.66-6.67,0.22-8.88,1.84c-3.48,2.57-7.49,0.57-11.1,2.76
		c-3.03,1.84-7.76,0.64-11.23,2.03c-7.57,3.04-15.68,3.72-23.46,5.68c-6.32,1.59-12.88,3.03-19.43,4.11
		c-7.7,1.26-15.2,3.84-23.01,4.82c-2.67,3.28-6.87,0.42-10.24,2.79c-2.63,1.85-7,1.03-10.45,1.94c-7.59,2.01-15.18,4-22.99,4.98
		c-1.52,2.29-3.89,1.06-5.87,1.47C1742.2,514.46,1740.56,515.15,1737.55,516.13z"/>
	<path d="M777.06,373.33c0-9.38,0-18.19,0-27.41c8.48-3.55,16.98-7.1,26.01-10.88c-2.65-4.06-5.37-8.25-8.12-12.41
		c-3.22-4.87-6.88-9.5-9.59-14.63c-2.62-4.96-4.55-10.47-3.52-16.26c0.66-3.67,1.95-7.25,3.19-10.79c1.48-4.23,3.19-8.38,4.8-12.55
		c8.59-1.03,15.86,2.27,23.91,4.85c2.25-4.35,4.61-8.75,6.83-13.21c4.54-9.14,10.38-17.35,16.33-25.65
		c7.25-10.12,17.07-16.96,26.6-23.97c7.27-5.35,16.29-8.72,24.99-11.59c8.92-2.94,18.34-4.18,27.78-5.39
		c14.12-1.81,28.15-0.95,42.21-1.23c14.27-0.29,28.56,0.22,42.83-0.19c6.33-0.18,12.62-1.78,19.28-2.78
		c2.78,5.73,4.41,12.13,5.72,18.91c1.58,8.21,0.07,16.46,1.54,24.4c2.6,14.08,0.68,28.15,1.43,42.2c0.39,7.3-1.39,14.75,2.49,22.17
		c-11.82-3-21.65-0.96-30.09,6.25c-4.49,3.84-8.45,8.3-12.62,12.52c-2.43,2.45-5.24,3.63-8.71,4.42c-6.84,1.56-13.54,3.74-20.4,5.35
		c-9.53,2.23-18.95,4.95-28.43,7.42c-6.33,1.65-12.85,2.75-18.95,5.01c-5.46,2.03-11.18,2.8-16.67,4.59
		c-7.16,2.33-14.54,4.02-21.89,5.69c-9.57,2.17-18.84,5.42-28.46,7.45c-6.84,1.45-13.54,3.65-20.23,5.75
		c-4.55,1.43-9.31,2.54-13.84,3.46c-5.48,1.11-10.58,3.47-16.22,4.11c-5.4,0.62-10.61,2.86-15.91,4.36
		C778.84,373.45,778.27,373.33,777.06,373.33z"/>
	<path d="M1504.87,567.65c0-2.52,0-4.36,0-6.2c0-35.04,0-70.07,0-105.11c0-7.76,2.79-14.94,4.95-22.22
		c1.05-3.54,3.28-6.71,4.73-10.16c3.27-7.82,8.23-14.5,13.32-21.19c5.89-7.73,11.66-15.63,19.02-21.95
		c9.01-7.73,18.04-15.44,27.88-22.24c9.81-6.78,19.88-12.97,30.44-18.39c4.65-2.39,9.62-4.09,14.58-5.8
		c3.52-1.22,6.46-3.16,8.38-7.19c2.39-5.03,6.43-9.28,9.65-13.7c5.17,2.26,8.55,7.08,14.21,6.75c3.37,5.32,4.42,10.77,4.89,16.36
		c0.62,7.32,1.31,14.64,1.58,21.97c0.27,7.54-0.05,15.09,0.13,22.63c0.05,1.94,0.41,4.44,1.64,5.7c6.67,6.89,4.92,14.45,2.19,22.09
		c-2.51,7.04-5.4,13.94-7.94,20.96c-2.44,6.76-4.2,13.59-4.14,20.96c0.21,27.76,0.08,55.52,0.08,83.84
		c-4.44,1.16-9.01,2.43-13.61,3.54c-11.53,2.79-23.24,4.69-34.72,7.82c-4.03,1.1-8.56,1.59-12.77,2.53
		c-4.2,0.94-8.53,1.33-12.63,2.63c-5.34,1.7-11.11,1.81-16.27,3.68c-5.25,1.91-11.2,1.01-15.97,4.38
		c-6.64-0.97-12.45,2.71-18.85,3.43C1518.94,563.54,1512.41,565.82,1504.87,567.65z"/>
	<path d="M581.86,934.4c-1.73-1.68-3.66-3.54-5.54-5.37c0-40.8-0.03-81.5,0.07-122.2c0.01-3.01-1.36-6.4,1.49-9.09
		c0.4-0.38,0.39-1.8,0-2.33c-2.85-3.85-0.9-8.15-1.79-12.27c55.17-12.17,109.93-24.25,165.23-36.45c0,3.34,0,5.99,0,8.63
		c0,40.43-0.09,80.86,0.09,121.29c0.03,7.05,1.19,14.09,1.87,21.72c4.51,5.52,9.43,11.53,14.55,17.8c-2.12,1.37-4.03,2.61-5.97,3.86
		c-2.54-3.18-5.12-6.4-8.08-10.1c-2.9,8.57,1.63,16.35,0.67,24.49C690.19,934.4,636.08,934.4,581.86,934.4z"/>
	<path d="M2116.1,113.35c-3.16,3.01-5.45,5.2-8.16,7.78c0.96,0.97,1.81,2.47,3.07,3c10.99,4.65,16.56,14.56,23.13,23.51
		c1.44,7.93,7.2,14.65,6.49,23.18c2.74,5.75,1.63,11.37,0.2,17.3c-0.89,3.7-2.02,6.83-4.78,9.41c-1.03,4.18,0.41,7.57,3.91,10.89
		c1.35-2.08,3.2-3.9,3.8-6.07c1.44-5.18,4.86-8.18,9.95-10.42c3.29,2.47,6.78,5.08,10.69,8.01c2.57-1.32,5.61-2.88,8.61-4.43
		c0-3.04,0-5.39,0-8.42c1.3,0.35,2.71,0.33,2.97,0.86c4.83,10.03,11.36,18.83,18.92,26.93c1.18,1.26,2.1,2.76,3.37,4.45
		c3.06-2.31,3.95-5.72,3.88-9.75c-0.13-8.32-0.04-16.65-0.04-25.23c7.99,1.72,13.44,7.15,19.19,11.79c5,4.04,9.31,8.97,13.77,13.65
		c1.57,1.65,2.7,3.71,3.99,5.53c-6.58,8.81-15.22,16.07-19.77,26.68c-6.39-3.51-13.39-6.06-20.56-7.55
		c-3.41-0.71-7.39,1.29-11.1,2.11c-0.46,0.1-0.87,0.86-1.25,0.82c-6.35-0.68-12.03,2.31-18.08,3.2c-4.79,0.7-8.88,4.14-13.98,3.37
		c-2.4,2.2-6.04,2.81-7.31,6.54c-1.04,3.05-2.89,5.82-4.68,9.29c0,3.06,0,6.81,0,10.8c0.7,0.8,1.54,1.78,2.4,2.77
		c1.42-0.7,2.46-1.2,3.76-1.84c0,6.35,0,12.48,0,19.38c-9.09-1.69-17.91-4.54-26.78-6.79c-8.96-2.28-18-4.36-26.86-7.22
		c-8.81-2.85-18.01-4.69-27.04-6.92c-9.05-2.24-18.09-4.62-27.13-6.9c-8.95-2.26-17.99-4.37-26.84-7.27
		c-8.78-2.88-18.04-4.56-27.07-6.87c-9.01-2.31-17.87-5.24-27.47-6.99c5.01-6.13,11.13-10.29,17.42-14.17
		c13.07-8.06,26.45-15.58,39.64-23.45c10.33-6.16,18.62-14.28,27.11-22.57c-9.26-10.93-21.47-17.77-34.13-24.69
		c15.12-4,29.93-7.91,44.73-11.82c2.24-4.83,3.85-10.3,2.12-15.05c-1.64-4.52-0.71-10.49-5.94-14.06c7.47,0,14.95,0,22.42,0
		c5.93,0,11.9-0.42,17.78,0.15c3.88,0.38,6.98-1.92,10.66-1.81c3.62,0.12,7.3,0.59,10.69-1.5
		C2112.48,112.55,2113.74,113.1,2116.1,113.35z"/>
	<path d="M1403.01,589.79c-4.54,1.18-9.04,2.52-13.61,3.52c-10.4,2.26-20.89,4.16-31.26,6.56c-9.6,2.23-19.22,4.37-28.84,6.51
		c-5.44,1.21-11.12,1.75-16.3,3.59c-5.26,1.87-11.17,1.09-15.97,4.37c-6.88-0.88-12.98,2.72-19.64,3.51
		c-7.93,0.94-15.67,3.64-23.47,5.65c-3.44,0.89-6.98,0.87-10.45,2.08c-8.32,2.91-17.39,3.06-25.63,6.47
		c-6.84-0.63-13.04,2.52-19.58,3.64c-7.66,1.31-15.37,3.04-22.92,5.05c-5.84,1.55-11.76,2.99-17.62,4.13
		c-8.48,1.66-16.72,4.64-25.43,5.1c-2.96,3.18-7.36,0.86-10.93,3c-2.85,1.71-7.06,0.97-10.49,1.92c-7.34,2.05-14.96,2.95-22.18,5.07
		c-5.8,1.7-11.78,2.63-17.58,4.21c-4.96,1.36-10.21,2.53-15.69,3.5c0-41.35,0-82.51,0-124c1.95-0.66,4.09-1.02,6.34,0.39
		c0.81,0.51,1.92,0.64,2.92,0.73c6.24,0.58,12.51,0.92,18.72,1.72c2.75,0.35,5.23,1.81,8.24,1.66c2.48-0.12,4.98-0.63,7.71,0.84
		c2.31,1.25,5.8,0.05,8.58,0.73c7.82,1.92,15.9,1.85,23.7,3.37c4.41,0.86,8.86,0.64,13.07,1.59c4.12,0.93,8.24,0.96,12.27,1.66
		c2.44,0.42,4.84,1.3,7.45,1.45c2.54,0.14,5.01-0.69,7.72,0.91c2.01,1.19,5.15,0.45,7.79,0.64c3.06,0.22,5.73,2.14,9.05,1.71
		c2.75-0.36,5.83-0.85,8.21,1.51c5.6-1.14,10.84,2.24,16.29,1.5c3.64-0.5,6.53,1.41,9.85,1.8c3.03,0.35,6.44-1.51,9.1,1.5
		c0.36,0.4,1.56,0,2.36,0.06c6.25,0.52,12.67,0.34,18.68,1.85c4.44,1.12,8.97,0.43,13.07,1.62c4.17,1.2,8.4,0.52,12.28,1.59
		c4.41,1.22,9.23,0.14,13,1.73c4.32,1.83,8.65-0.09,12.31,1.5c3.92,1.71,8.09,0.21,11.45,1.65c3.95,1.7,7.73,0.93,11.56,1.42
		c2.77,0.35,5.47,1.19,8.23,1.54c2.54,0.32,5.25-0.54,7.47,1.6c0.42,0.4,1.56,0.04,2.37,0.06c3.88,0.11,7.65-0.01,11.53,1.42
		c3.25,1.19,7.32-0.73,10.61,1.78c0.34,0.26,1.05,0,1.59,0.04c3.85,0.28,7.61-0.2,11.56,1.37c3.4,1.35,7.53,0.22,11.45,1.62
		c3.27,1.17,7.29,0.24,10.97,0.24C1402.93,588.92,1402.97,589.35,1403.01,589.79z"/>
	<path d="M346.75,934.4c0-33.91,0-67.52,0-101.1c9.38-1.82,18.61-3.61,27.84-5.4c2.98-3.15,7.35-0.92,10.92-3
		c2.88-1.68,7.15-0.78,10.47-1.97c5.73-2.05,11.8-2.94,17.61-4.12c6.46-1.3,12.9-3.05,19.47-4.11c7.69-1.23,15.4-3,22.94-5.04
		c5.57-1.51,11.36-2,16.81-4.25c3.45-1.42,8.12-0.27,11.25-2.04c3.6-2.03,7.97,0.22,10.93-2.98c3.5,0.81,6.59-0.9,9.84-1.63
		c1.96-0.44,3.88-1,6.38-1.65c0.86,9,0.27,18.03,0.38,27.04c0.11,9.16,1.12,18.5-0.28,27.44c-1.45,9.29-1.07,18.45-1.27,27.68
		c-0.2,9.16-0.04,18.33-0.04,27.49c0,9.13,0,18.25,0,27.64C455.62,934.4,401.52,934.4,346.75,934.4z"/>
	<path d="M3100.58,375.22c19.59,3.89,38.34,7.96,57.16,13.07c3.18,3.18,6.61,6.61,9.87,9.87c0,7.38,0,14.58,0,21.97
		c-1.99-1.02-3.7-1.9-5.66-2.91c-6.67-0.73-13.69-1.49-21.07-2.3c-0.28-0.6-0.8-1.7-1.41-2.99c-0.8,0.32-1.73,0.41-2.15,0.92
		c-1.63,1.98-2.91,4.27-4.65,6.12c-4.1,4.36-8.06,8.97-15.09,10.74c-2.95,0-6.92,0-11.27,0c0.17-3.2,4.42-6.54-0.97-9.2
		c-0.61,0.87-1.54,1.9-2.15,3.09c-4.29,8.28-7.39,16.83-6.55,26.43c0.33,3.75,0.22,7.55,0.02,11.32
		c-0.44,8.48,2.35,16.67,1.77,25.22c-0.56,8.32-0.12,16.71-0.12,25.07c0,8.63,0,17.25,0,26.2
		c-64.64-16.79-129.21-33.55-193.88-50.35c10.07-5.68,20.35-11.12,30.26-17.17c8.81-5.38,18.16-9.81,26.71-15.69
		c5.33-3.66,11.61-5.9,17.12-9.34c9.19-5.74,19.05-10.28,28.01-16.43c4.09-2.81,8.88-4.59,13.24-7.02
		c9.64-5.37,19.15-10.99,28.77-16.39c5.67-3.19,11.41-6.42,17.02-9.79c5.58-3.35,11.84-5.7,17.02-9.53
		C3088.52,381.71,3095.65,379.5,3100.58,375.22z"/>
	<path d="M131.65,544.31c0-41.05,0-82.19,0-124.08c1.63,0.34,3.24,0.65,4.83,1.01c0.73,0.16,1.43,0.54,2.17,0.61
		c6.24,0.57,12.49,1.01,18.72,1.68c2.77,0.3,5.47,1.17,8.23,1.54c2.53,0.34,5.22-0.57,7.48,1.58c0.57,0.54,2.08,0.06,3.16,0.08
		c3.62,0.08,7.1,0.05,10.71,1.42c3.24,1.23,7.32-0.8,10.6,1.77c0.33,0.26,1.05,0,1.59,0.04c3.85,0.33,7.61-0.34,11.55,1.38
		c3.35,1.46,7.82-0.83,11.37,1.82c0.35,0.26,1.05,0,1.59,0.04c3.86,0.25,7.61-0.17,11.54,1.37c3.41,1.34,7.51,0.62,11.42,1.59
		c6.26,1.55,12.96,1.26,19.46,1.93c2.77,0.29,5.48,1.03,8.22,1.58c2.75,0.55,5.67-0.98,8.4,1.32c1.12,0.94,3.62,0.11,5.47,0.32
		c3.25,0.37,6.49,0.91,9.59,1.36c0.48,9.92,2.54,18.94,2.06,28.24c-0.49,9.36-0.11,18.76-0.11,28.8c-3.72,1.04-7.3,2.09-10.92,3.04
		c-7.05,1.84-14.13,3.59-21.18,5.43c-9.47,2.48-18.92,5.03-28.4,7.51c-6.32,1.66-12.76,2.93-18.97,4.95
		c-6,1.95-12.18,3.1-18.19,4.85c-6.75,1.97-13.49,3.93-20.35,5.46c-9.57,2.13-18.82,5.44-28.44,7.48
		C146.02,539.96,138.95,542.29,131.65,544.31z"/>
	<path d="M2262.6,846.95c-0.77-1.89-1.66-3.69-2.25-5.59c-1.69-5.5-3.06-11.11-4.93-16.55c-1.94-5.63-1.55-11.38-1.55-17.13
		c-0.02-32.59-0.01-65.18-0.01-97.77c0-2.64,0-5.27,0-8.39c1.35,0.84,2.1,1.66,2.92,1.74c6.5,0.64,13.02,1.04,19.52,1.71
		c2.77,0.29,5.48,1.07,8.22,1.57c2.49,0.45,5.39-1.1,7.45,1.59c0.2,0.26,1.03,0,1.57,0.04c6.78,0.53,13.57,0.98,20.33,1.66
		c2.77,0.28,5.46,1.2,8.23,1.53c2.54,0.3,5.25-0.54,7.46,1.61c0.42,0.4,1.56,0.04,2.37,0.06c3.88,0.1,7.65-0.01,11.52,1.43
		c3.25,1.2,7.32-0.77,10.6,1.77c0.34,0.26,1.05,0,1.59,0.04c3.85,0.32,7.6-0.29,11.55,1.37c3.37,1.41,7.78-0.64,11.38,1.81
		c0.55,0.38,1.58,0.04,2.39,0.05c3.62,0.05,7.11-0.03,10.71,1.44c3.21,1.31,6.96-0.2,10.7,1.51c3.09,1.41,7.34,0.29,11.35,0.29
		c0,12.29,0,24.34,0,37.29c-6.17,3.52-13.01,7.29-19.72,11.26c-8.45,5-16.78,10.2-25.21,15.23c-4.3,2.57-8.72,4.94-13.09,7.4
		c-10.08,5.67-19.99,11.68-29.99,17.45c-9.29,5.36-18.77,10.54-28.1,15.86c-8.3,4.72-16.81,9.14-24.69,14.62
		C2269.89,843.98,2266.23,845.2,2262.6,846.95z"/>
	<path d="M480.83,457.76c4.23-1.18,8.46-2.38,12.7-3.54c9.43-2.58,19.04-4.4,28.34-7.64c7.11-2.47,14.71-3.47,22.04-5.34
		c9.24-2.36,18.59-4.27,27.67-7.29c5-1.66,10.19-2.75,15.32-3.99c9.52-2.3,19.12-4.27,28.44-7.41c4.99-1.68,10.22-2.66,15.35-3.93
		c9.5-2.36,19.1-4.3,28.43-7.43c4.73-1.59,9.78-2.23,14.58-3.83c2.63-0.88,5.47-1.11,8.2-1.69c2.96-0.63,6.53-0.53,8.7-2.21
		c2.55-1.98,6.19,0.72,7.87-2.63c9.86-1.06,18.91-5.65,28.83-6.54c1.11-0.1,2.13-1.21,3.62-2.1c1.36,3.93,2.94,7.35,3.71,10.95
		c0.96,4.52,1.22,9.2,1.87,13.79c0.46,3.29,1.04,6.56,1.61,9.83c0.52,3.01-1.34,6.43,1.58,9.07c0.27,0.24,0.06,1.04,0.03,1.58
		c-0.5,11.14,2.56,22.07,1.72,33.27c-0.54,7.21-0.1,14.49-0.1,21.86c-3.05,1.28-5.47-0.42-8.17-0.93
		c-5.86-1.11-11.92-1.17-17.88-1.83c-2.77-0.31-5.49-1.01-8.22-1.59c-2.76-0.58-5.9,1.34-8.36-1.31c-0.28-0.3-0.97-0.25-1.47-0.29
		c-6.24-0.55-12.49-1-18.72-1.66c-2.77-0.3-5.48-1.06-8.22-1.57c-2.49-0.47-5.38,1.17-7.48-1.56c-0.3-0.39-1.55,0-2.35-0.07
		c-6.24-0.52-12.49-1.02-18.72-1.64c-2.51-0.25-4.67-1.76-7.41-1.74c-2.75,0.03-5.53,0.87-8.48-0.95c-1.96-1.22-5.25-0.05-7.81-0.59
		c-8.37-1.75-16.97-1.92-25.28-3.5c-4.44-0.84-9.1-0.02-13.03-1.54c-4.21-1.63-8.24-0.97-11.76-1.37c-3.05-2.34-5.73-4.38-8.46-6.47
		c-6.46,0-12.92-0.32-19.34,0.07c-10.91,0.66-21.66-1.03-32.45-1.86c-2.95-0.23-5.89-1.43-9.04-1.54c-2.76-0.1-5.46-1.22-8.23-1.46
		c-3.13-0.27-6.31-0.06-9.46-0.06C480.93,458.63,480.88,458.2,480.83,457.76z"/>
	<path d="M158.14,933.05c-0.66,0.66-1.23,1.23-2.35,2.35c-1.06,7.51,3.93,14.87,3.13,22.58c-3.44,3.77-8.31,2.35-12.37,3.8
		c-3.69,1.33-8.55-0.58-13.17-1.1c0-26.92,0-53.52,0-80.72c9.65-0.04,19.06-3.49,28.71-5.54c7.77-1.65,16.01-2.29,23.36-5.89
		c6.82,0.49,13.01-2.6,19.56-3.69c7.68-1.28,15.38-3.06,22.91-5.14c2.03-0.56,4-0.68,5.98-1.1c1.96-0.42,3.85-1.17,5.81-1.57
		c8.46-1.73,16.93-3.39,25.4-5.07c2.67-3.27,6.87-0.4,10.25-2.78c2.63-1.85,6.96-1.15,10.46-1.93c4.4-0.99,8.71-2.33,13.88-3.75
		c0,2.46,0.02,4.25,0,6.04c-0.11,8.44,2.3,16.67,1.74,25.21c-0.54,8.32-0.12,16.7-0.12,25.06c0,8.63,0,17.25,0,26
		c-0.73,0.67-1.52,1.39-2.13,1.96c-4.2,0.69-8.23,1.63-12.31,1.95c-4.29,0.34-8.84-0.79-12.88,0.26c-7.88,2.05-15.76,1.24-23.64,1.4
		c-8.08,0.16-16.18-0.17-24.26,0.1c-7.33,0.25-14.64,1.24-21.98,1.49c-7.81,0.27-15.63,0.06-23.45,0.06
		C173.13,933.05,165.59,933.05,158.14,933.05z"/>
	<path d="M3096.2,192.15c0.83,7.21,1.59,13.87,2.37,20.68c-54.72,12.44-108.98,24.18-163,36.39c-0.87-5.01-1.86-9.02-2.2-13.08
		c-0.35-4.28,0.58-8.74-0.21-12.9c-1.79-9.37-2.44-19.09-7.21-28.18c-1.12,0.59-2.2,1.16-3.43,1.8
		c-2.54-11.38-8.8-21.08-15.43-30.68c-6.44,0.45-12.96-1.61-17.86,3.69c-1.86,2.13-4.03,4.06-5.48,6.44
		c-1.4,2.3-2.04,5.06-3.03,7.65c-5.32-10.14-9.85-20.78-16.96-30.18c0-8.38,0-16.99,0-25.37c4.31-3.64,8.49-7.17,12.71-10.73
		c5.64,4.42,11.3,8.86,16.53,12.96c4.47,0,8.24,0,12.68,0c7.43-5.35,15.29-11.02,23.75-17.11c-2.9-3.21-5.32-5.88-7.46-8.25
		c0-0.78-0.07-1.26,0.01-1.29c1.2-0.39,2.42-0.72,4.75-1.39c0.77-0.98,2.25-2.85,3.65-4.6c5.12,6.23,7.43,13.09,8.76,20.94
		c-0.52,1.02-1.41,2.73-2.16,4.19c6.62,9.52,13.29,19.11,19.92,28.65c11.27-4.87,18.49-6.87,24.72-2.73
		c-5.55,5.15-11.6,9.88-16.52,15.59c-4.75,5.52-8.33,12.06-12.78,18.69c5.31,1.7,10.27,2.98,14.97,4.89
		c3.13,1.27,6.43,0.94,9.67,1.95c5.6,1.75,11.84,1.85,17.82,1.88C3028.44,192.23,3062.11,192.15,3096.2,192.15z"/>
	<path d="M2883.27,489.1c-7.79,4.37-15.41,8.26-22.6,12.81c-5.96,3.78-12.2,7.03-18.28,10.57c-8.48,4.93-16.83,10.09-25.31,15.04
		c-4.54,2.65-9.34,4.87-13.81,7.62c-9.66,5.93-19.74,11.14-29.19,17.45c-5.16,3.45-11.16,5.61-16.56,8.73
		c-8.29,4.77-16.36,9.94-24.61,14.79c-5.6,3.29-11.36,6.32-17.31,9.61c-0.31-1.15-0.69-1.88-0.66-2.59
		c1.12-30.53-2.6-60.97-1.66-91.5c0.11-3.5,0.76-7.21-0.12-10.47c-2.97-11.06-0.73-22.24-1.46-33.33c-0.03-0.45,0.32-0.93,0.71-2.02
		C2769.14,460.18,2825.95,474.57,2883.27,489.1z"/>
	<path d="M333.66,437.87c-3.46,0-6.35,0-9.88,0c1.59-12.64-1.91-24.83-1.58-37.31c0.22-8.38-2.36-16.71-1.48-25.21
		c-2.31-3.86-0.94-8.24-1.77-12.24c-0.8-3.83-0.88-7.75-1.71-11.44c-0.86-3.86-1.56-7.59-1.31-10.85c-0.98-1.89-1.67-3.23-2.38-4.59
		c-6.31,0.97-11.62,3.7-15.53,9.18c0,28.88,0,57.98,0,87.76c-3.53-0.78-7.19,1.75-10.48-1.52c-0.41-0.41-1.56-0.02-2.36-0.09
		c-6.25-0.53-12.66-0.37-18.68-1.85c-4.17-1.02-8.39-0.5-12.27-1.58c-4.14-1.16-8.44-0.49-12.26-1.64
		c-4.17-1.26-8.29-0.76-12.31-1.54c-3.83-0.74-7.56-1.4-11.48-1.62c-2.71-0.15-5.25-1.7-8.24-1.58c-2.51,0.1-5,0.57-7.73-0.79
		c-2.38-1.19-5.98,0.16-8.52-0.87c-4.11-1.67-8.4-0.58-12.28-1.66c-4.14-1.16-8.44-0.49-12.26-1.65c-4.17-1.26-8.3-0.75-12.31-1.54
		c-3.83-0.75-7.73-0.93-11.44-1.71c-4.02-0.84-8.04-1.41-14-1.35c56.03-28.02,110.3-55.15,165.56-82.78
		c-0.94,2.41-1.53,3.94-2.12,5.47c1.44,3.69,4.53,2.92,7.51,2.74c2.98-3.44,3.87-7.62,3.89-12.72c9.3-4.72,18.86-9.57,29.04-14.73
		c0,10.91,0,21.61,0,32.31c0,10.51-0.46,21.05,0.13,31.53c0.6,10.68-2.07,21.07-1.8,31.69C333.86,416.2,333.66,426.71,333.66,437.87
		z"/>
	<path d="M2492.47,727.61c-0.89-0.89-1.65-1.65-2.64-2.63c3.95-2.38,7.78-4.81,11.73-7.05c9.59-5.45,19.42-10.49,28.78-16.29
		c8.77-5.44,18.15-9.79,26.67-15.72c5.3-3.68,11.58-5.91,17.1-9.32c9.2-5.69,19.01-10.3,27.98-16.41c4.1-2.79,8.81-4.68,13.86-7.3
		c0,10.78,2.64,20.85,4.78,31.07c2.13,10.16,5.3,20.04,7.04,30.51c10.53,0,20.96,0,31.75,0c0,11.42,0,22.58,0,34.28
		c-4.05-0.8-8.31,1.44-12.13-1.67c-0.49-0.4-1.57-0.04-2.38-0.06c-3.88-0.08-7.65,0.01-11.52-1.43c-3.25-1.21-7.32,0.8-10.6-1.76
		c-0.33-0.26-1.05,0-1.59-0.04c-3.85-0.33-7.61,0.34-11.55-1.38c-3.35-1.46-7.77,0.74-11.4-1.78c-0.73-0.5-2.1-0.07-3.18-0.07
		c-3.63-0.02-7.13-0.04-10.7-1.47c-3-1.2-6.81,1.09-9.85-1.68c-0.59-0.54-2.08-0.06-3.16-0.08c-3.62-0.08-7.1-0.03-10.71-1.43
		c-3.23-1.25-7.31,0.84-10.61-1.75c-0.5-0.39-1.57-0.03-2.38-0.06c-3.88-0.11-7.64,0-11.52-1.42c-3.24-1.19-7.31,0.72-10.59-1.78
		c-0.34-0.26-1.05,0-1.59-0.04c-3.85-0.28-7.61,0.2-11.55-1.37c-3.4-1.35-7.56-0.01-11.44-1.66
		C2498.6,726.74,2495.28,727.61,2492.47,727.61z"/>
	<path d="M1736.43,544.03c0-5.51,0-11.09,0-16.41c56.51-12.42,112.75-24.78,169.63-37.28c0,6.37-0.04,13.27,0.01,20.17
		c0.05,6.56-1.89,12.88-1.9,19.53c-0.01,6.48-2.2,12.96-3.54,19.97c-7.47-2.97-15.36-0.67-22.64-2.25
		c-7.69-1.67-15.23-1.01-22.82-1.27c-7.53-0.25-15.26-1.11-22.57,0.18c-11.67,2.06-23.29,1.06-34.92,1.32
		c-11.57,0.26-23.16,0.01-34.74,0.07c-6.83,0.04-13.4-2.56-20.35-1.77C1740.84,546.49,1738.89,544.98,1736.43,544.03z"/>
	<path d="M1504.94,593.68c0-4.57,0-9.4,0-14.84c4.55-1.09,9.17-2.25,13.82-3.28c2.99-0.66,6.19-0.65,8.99-1.73
		c6.69-2.58,13.88-2.7,20.68-4.7c10.89-3.2,22.36-4.05,33.09-7.96c6.82,0.51,13.02-2.58,19.55-3.73c5.84-1.02,11.76-3.05,17.61-3.98
		c6.57-1.04,12.81-3.48,19.51-3.95c3.9-0.28,7.7-2,12.27-3.28c0,7.99,0.13,15.72-0.04,23.44c-0.16,7.34-0.43,14.66-1.15,22.01
		c-0.73,7.51-2.77,14.89-2.08,22.08c-4.1-0.38-7.64-0.6-11.15-1.06c-3.03-0.39-6.02-1.08-9.04-1.58c-2.76-0.45-5.88,1.16-8.29-1.57
		c-0.35-0.4-1.56,0-2.36-0.07c-6.25-0.52-12.61-0.51-18.71-1.75c-7.88-1.61-15.91-1.81-23.71-3.32c-4.4-0.85-8.91-0.55-13.06-1.62
		c-4.15-1.08-8.33-0.69-12.27-1.63c-2.48-0.59-4.88-1.24-7.47-1.45c-2.53-0.2-5,0.72-7.71-0.95c-1.97-1.22-5.53,0.31-7.72-0.74
		C1519.15,594.89,1511.54,598.84,1504.94,593.68z"/>
	<path d="M2636.88,417.91c-61.19-15.88-120.99-31.39-180.79-46.91c0-0.59,0-1.12,0-1.9c34.93-7.63,70.01-14.95,104.87-23.2
		c1.99-0.47,4.19-0.06,6.34-0.06c1.79,3.08,3.78,5.77,4.99,8.78c1.4,3.46,3.51,4.81,7.15,6.01c8.45,2.8,16.07,7.49,22.51,13.83
		c3.65,3.59,7.19,7.27,10.86,10.83c7.67,7.44,13.2,16.55,19.55,25.02C2633.85,412.27,2634.91,414.55,2636.88,417.91z"/>
	<path d="M2084.81,1018.95c-5.5-2.11-9.6-5.4-13.83-8.85c-7.86-6.4-14.87-14.16-25.07-17.36c-4.49-1.41-8.73-3.6-13.54-5.63
		c10.18-7.36,21.78-12.55,32.43-19.27c10.57-6.67,21.84-12.23,32.85-18.31c7.77,6.5,14.88,14.1,24.43,19.02c16.93,0,34.14,0,52.21,0
		c4.54-5.46,9.49-11.41,14.62-17.58c6.13,10.84,11.55,22.3,15.47,35.47c-2.55,0-4.34-0.13-6.12,0.02
		c-5.71,0.48-11.4,1.15-17.11,1.56c-2.95,0.21-6,0.45-8.86-0.09c-2.37-0.45-4.43-2.6-6.78-2.98c-3.8-0.6-7.36-2.42-11.44-1.84
		c-3.14,0.45-6.4,0.09-9.86,0.09c-2.57,3.21-5.14,6.43-8.25,10.31c-0.11-1.91-0.19-3.17-0.2-3.35c-2.6-2.57-4.64-4.6-7.13-7.06
		c-0.93,0.92-2.19,2.2-3.49,3.43c-9.1,8.58-18.2,17.15-27.32,25.7C2094.04,1015.78,2089.19,1017.23,2084.81,1018.95z"/>
	<path d="M2471.15,319.4c3.77,3.15,7.55,6.3,11.93,9.95c7.71-0.21,15.31,5.76,24.16,3.18c1.17,1.96,2.09,3.48,3.07,5.13
		c3.01,0,6.22,0,9.5,0c0.86-1.38,1.77-2.86,2.48-3.99c3.86-2.49,6.73,0.72,9.97,0.95c3.22,0.23,6.37,1.42,9.59,2.54
		c-7.28-0.17-14,2.64-20.86,4.21c-7.78,1.78-15.7,3.46-23.47,5.43c-6.31,1.6-12.87,3.01-19.42,4.1c-7.69,1.29-15.2,3.82-23,4.79
		c-2.63,3.35-6.86,0.4-10.23,2.81c-2.6,1.86-6.89,1.56-10.46,1.81c-2.6,0.18-4.68,1.69-7.39,1.87c-7.2,0.49-13.68-2.44-20.35-3.9
		c-4.98-1.1-10.19-2.33-15.18-4.11c-4.65-1.65-9.83-2.47-14.66-3.75c-9.93-2.64-20.06-4.61-29.85-7.81c-0.7-0.23-1.49-0.2-2.49-1.22
		c7.76-2.83,15.43-5.97,23.31-8.41c6.98-2.16,14.13-3.74,21.34-5.17c9.24-1.84,18.37-3.23,27.79-3.09c2.46,0.04,4.91-1.2,7.41-1.49
		c7.11-0.83,13.6,1.9,20.2,3.85c6.81,2,13.18,1.44,19.12-2.6C2465.79,323.04,2467.91,321.6,2471.15,319.4z"/>
	<path d="M2237.94,950.74c4.34,2.73,8.51,3.5,13,3.38c4.12-0.11,8.39-0.72,12.1,2.02c-1.27,2.37-1.7,4.92-0.06,8.33
		c5.57-3.91,9.44-9.37,14.61-13.64c6.85,8.64,17.18,14.25,21.55,26.36c-0.15,7.71,1.43,17.06-5.09,25.02
		c-8.42,2.21-16.9,4.43-25.7,6.73c-1.02-0.4-2.42-1.42-3.8-1.4c-6.13,0.1-10.6-3-15.03-6.75c-6.1-5.15-10.15-11.89-14.71-18.2
		c-4.18-5.79-4.42-14.41-1.39-21.8C2234.74,957.58,2236.27,954.44,2237.94,950.74z"/>
	<path d="M2269.99,397.17c5.23-6.01,8.89-10.81,13.16-14.99c6.66-6.52,14.48-11.67,21.75-17.45c5.47-4.35,11.55-7.59,17.09-11.7
		c6.24-4.62,9.38-4.47,19.19-1.64c7.49,2.16,15.1,3.91,22.69,5.75c7.36,1.78,14.76,3.4,22.12,5.17c3.66,0.88,7.29,1.89,10.9,2.96
		c1.91,0.56,3.74,1.38,6.49,2.41C2358.94,377.35,2315.43,387.28,2269.99,397.17z"/>
	<path d="M2695.49,754.02c-5.67-0.73-10.74-1.37-16.28-2.08c0-43.93,0-87.44,0-132.04c-3.91,2.78-6.95,4.93-10.1,7.17
		c-1.45-0.72-2.89-1.43-4.44-2.2c9.95-5.72,19.74-11.34,29.53-16.97c0.25,0.09,0.51,0.13,0.72,0.26c0.22,0.14,0.55,0.37,0.55,0.56
		C2695.49,656.67,2695.49,704.64,2695.49,754.02z"/>
	<path d="M346.89,448.84c3.89,0.77,7.36,1.43,10.83,2.14c3.53,0.72,7.49-1.65,10.71,1.52c0.28,0.27,1.03,0.05,1.56,0.09
		c6.25,0.53,12.5,0.99,18.73,1.66c2.77,0.3,5.47,1.17,8.23,1.54c2.53,0.34,5.27-0.62,7.47,1.6c0.4,0.4,1.56,0.04,2.37,0.06
		c3.88,0.08,7.66-0.01,11.53,1.43c3.25,1.21,7,0.05,10.69,1.53c3.21,1.28,7.34,0.27,12.64,0.27c-2.32,1.67-3.38,3.08-4.5,3.13
		c-5.18,0.2-10.03,1.99-14.76,3.55c-5.5,1.82-11.19,2.78-16.69,4.54c-7.17,2.3-14.53,4.09-21.89,5.71
		c-9.59,2.11-18.8,5.67-28.5,7.37c-2.69,0.47-5.31,1.34-8.42,2.14C346.89,474.29,346.89,462.24,346.89,448.84z"/>
	<path d="M2679.31,758.47c4.75,2.72,9.57,0.75,13.95,1.69c0.66,0.66,1.23,1.23,1.89,1.89c0,37.48,0,75.05,0,112.65
		c-3.97-8.14-7.79-16.16-11.78-24.09c-2.56-5.09-4.19-10.24-4.15-16.1c0.2-23.17,0.08-46.34,0.08-69.51
		C2679.31,762.9,2679.31,760.8,2679.31,758.47z"/>
	<path d="M1705.25,621.85c-6.37-0.97-12.56-1.91-19.42-2.96c1.29-5.63-1.7-11.47,1.79-16.94c0.37-0.57,0.39-1.86-0.01-2.34
		c-2.24-2.77-1.29-5.99-1.62-9.05c-0.13-1.17-0.97-2.27-1.52-3.49c0.5-1.27,1.4-2.63,1.51-4.05c0.24-3.21-1.16-7.36,0.38-9.45
		c2.07-2.82,0.1-6.18,2.73-8.77c1.21-1.2,0.11-4.64,0.23-7.05c0.33-6.76,0.76-13.52,1.14-20.21c6.69-1.32,12.89-2.54,19.78-3.9
		c-1.41,3.12-2.74,6.1-4.08,9.07c-0.3-0.1-0.6-0.21-0.9-0.31C1705.25,568.96,1705.25,595.52,1705.25,621.85z"/>
	<path d="M2203.33,888.89c-0.44,5.28-1.47,10.11-1.06,14.81c0.43,4.89-2.05,9.14-1.84,13.88c0.22,5.04,0.05,10.1,0.05,15.24
		c-1.23,0.1-2.06,0.4-2.75,0.2c-10.16-2.95-20.55-1.21-30.83-1.53c-6.55-0.2-12.83-2.61-19.52-1.75c-5.86,0.75-11.8,0.82-18.25,1.23
		c10.02-5.65,19.8-10.84,29.23-16.58c9.23-5.62,18.96-10.34,27.97-16.37C2191.49,894.57,2197.29,892.09,2203.33,888.89z"/>
	<path d="M1449.86,621.16c1.38-8.73,2.61-16.5,3.95-24.94c12.82,1.64,25.76,3.29,38.42,4.91c3.07,3.41,3.39,7.1,2.72,11.1
		c-8.96,3.47-16.8,8.9-24.68,15.16c-2.41-1.82-4.51-4.09-7.11-5.23C1459.24,620.44,1455.21,617.19,1449.86,621.16z"/>
	<path d="M326.04,498.18c2.06-0.71,4.4-1.52,7.62-2.63c-0.78,8.87,1.7,16.97-1.52,24.97c-0.65,1.62-0.09,3.73-0.09,5.62
		c0,28.83,0,57.66,0,86.49c0,2.64,0,5.27,0,8.2c-0.88-0.45-1.57-0.63-1.57-0.82c-0.05-9.7,1.01-19.55-0.34-29.06
		c-1.36-9.55-1.58-19.01-1.15-28.46c0.46-10.14-2.11-19.98-1.84-30.06c0.26-9.96,0.1-19.94,0.01-29.91
		C327.13,501.14,326.46,499.76,326.04,498.18z"/>
	<path d="M2216.85,696.87c1.9,0.98,3.24,1.66,4.61,2.37c0,1.05,0,2.11,0,3.22c-0.12,0.15-0.29,0.53-0.45,0.53
		c-14.72,0.03-29.44,0.02-45,0.02c-0.97-3.15-2.05-6.68-3.39-11.06c3.93,0.83,7.59-1.67,10.85,1.59c0.27,0.27,1.03,0.05,1.56,0.09
		c6.23,0.53,12.47,0.99,18.69,1.66c2.23,0.24,4.37,1.26,6.6,1.51C2212.69,697.08,2215.12,696.87,2216.85,696.87z"/>
	<path d="M2679.56,413.04c5.85-3.74,12.49-5.35,15.65-13.59c0,12.21,0,22.78,0,33.67c-5.25-1.27-10.3-2.49-15.65-3.78
		C2679.56,424.09,2679.56,418.53,2679.56,413.04z"/>
	<path d="M333.41,490.96c-2.55,0.71-4.9,1.36-7.48,2.07c-1.52-15.44,1.53-30.86-1.98-46.01c3.39-2.58,6.2,0.14,9.46,1.1
		C333.41,462.17,333.41,476.3,333.41,490.96z"/>
	<path d="M799.33,509.24c1.52,0,3.67,0,6.52,0c0.53,1.34,2.14,3.44,1.63,4.44c-2.18,4.19-1.16,8.66-1.49,13.09
		c-8.23,0.91-15.67,0.04-22.96-5.41C788.51,517.28,793.71,513.41,799.33,509.24z"/>
	<path d="M1489.58,582.09c0.68,0.68,1.44,1.44,2.16,2.16c0,2.92,0,5.79,0,9.15c-9.58-1.32-18.93-2.61-28.64-3.94
		c-0.34-1.21,1.34-2.15,1.99-2.3C1473.2,585.34,1481.36,583.75,1489.58,582.09z"/>
	<path d="M1945.71,262.16c1.69-3.65,3.15-6.81,4.91-10.6c2.87,3.18,8.14,0.41,10.62,5.01c-1.06,2.03-2.1,4.03-3.64,6.97
		c0,1.29,0,3.65,0,7.09C1953.45,267.68,1950.01,265.23,1945.71,262.16z"/>
	<path d="M1001.05,456.01c2,0,3.57,0,5.26,0c-0.16,0.57-0.18,0.99-0.38,1.3c-2.05,3.16-4.01,6.4-6.24,9.44
		c-2.13,2.9-4.55,5.59-7.56,9.25C992.95,467.73,994.13,460.76,1001.05,456.01z"/>
	<path d="M2190.67,474.82c0.68-3.37,1.35-6.74,2.12-10.56c0.83,0.39,1.75,1,2.75,1.23c0.95,0.22,1.99,0.05,3.45,0.05
		c-2.65,3.5-4.9,6.48-7.16,9.45C2191.45,474.93,2191.06,474.88,2190.67,474.82z"/>
	<path d="M2205.25,456.26c-0.81,1.57-1.48,2.87-2.56,4.98c-0.29-2.17-0.49-3.61-0.76-5.61
		C2203.6,455.94,2204.5,456.11,2205.25,456.26z"/>
	<path d="M2271.82,396.13c-0.38,0.44-0.75,0.88-1.13,1.32c-0.17-0.17-0.34-0.34-0.51-0.51c0.44-0.38,0.88-0.75,1.32-1.13
		C2271.61,395.91,2271.72,396.02,2271.82,396.13z"/>
	<path d="M817.2,512.62c-0.44-0.38-0.88-0.75-1.32-1.13c0.17-0.17,0.34-0.34,0.51-0.51c0.38,0.44,0.75,0.88,1.13,1.32
		C817.41,512.41,817.31,512.52,817.2,512.62z"/>
	<path d="M2153.42,643.66c-0.44-0.38-0.88-0.75-1.32-1.13c0.17-0.17,0.34-0.34,0.51-0.51c0.38,0.44,0.75,0.88,1.13,1.32
		C2153.63,643.44,2153.52,643.55,2153.42,643.66z"/>
	<path d="M2635.78,416.84c0.44,0.38,0.88,0.75,1.32,1.13c-0.17,0.17-0.34,0.34-0.51,0.51c-0.38-0.44-0.75-0.88-1.13-1.32
		C2635.57,417.05,2635.68,416.94,2635.78,416.84z"/>
</g>
</svg>
